<svg class="animated" id="freepik_stories-astronaut-suit" xmlns="http://www.w3.org/2000/svg" viewBox="0 0 500 500" version="1.1" xmlns:xlink="http://www.w3.org/1999/xlink" xmlns:svgjs="http://svgjs.com/svgjs"><style>svg#freepik_stories-astronaut-suit:not(.animated) .animable {opacity: 0;}svg#freepik_stories-astronaut-suit.animated #freepik--Flag--inject-65 {animation: 1.5s Infinite  linear floating;animation-delay: 0s;}            @keyframes floating {                0% {                    opacity: 1;                    transform: translateY(0px);                }                50% {                    transform: translateY(-10px);                }                100% {                    opacity: 1;                    transform: translateY(0px);                }            }        </style><g id="freepik--background-complete--inject-65" style="transform-origin: 249.99px 245.97px 0px;" class="animable"><polygon points="377.78 339.87 383.29 340.88 384.52 346.69 385.75 340.88 391.26 339.86 385.77 338.52 384.52 333.04 383.26 338.52 377.78 339.87" style="fill: rgb(199, 199, 199); transform-origin: 384.52px 339.865px 0px;" id="ell2g67mg7cb" class="animable"></polygon><polygon points="150.49 308.51 156 309.53 157.23 315.34 158.46 309.53 163.97 308.51 158.49 307.17 157.23 301.69 155.98 307.17 150.49 308.51" style="fill: rgb(199, 199, 199); transform-origin: 157.23px 308.515px 0px;" id="el3gqpsmfpflp" class="animable"></polygon><polygon points="321.51 186.45 327.02 187.47 328.25 193.28 329.48 187.47 334.99 186.45 329.5 185.11 328.25 179.63 327 185.11 321.51 186.45" style="fill: rgb(199, 199, 199); transform-origin: 328.25px 186.455px 0px;" id="elguaoa1k5h0q" class="animable"></polygon><polygon points="430.14 305.68 433.22 306.25 433.91 309.5 434.6 306.25 437.68 305.68 434.61 304.93 433.91 301.87 433.21 304.93 430.14 305.68" style="fill: rgb(199, 199, 199); transform-origin: 433.91px 305.685px 0px;" id="el54xn94rgiwk" class="animable"></polygon><polygon points="196.5 429.18 199.57 429.75 200.26 433 200.95 429.75 204.03 429.18 200.96 428.43 200.26 425.37 199.56 428.43 196.5 429.18" style="fill: rgb(199, 199, 199); transform-origin: 200.265px 429.185px 0px;" id="elq5px97jw3ll" class="animable"></polygon><polygon points="401.28 153.63 404.36 154.2 405.05 157.44 405.74 154.2 408.82 153.63 405.75 152.88 405.05 149.81 404.35 152.88 401.28 153.63" style="fill: rgb(199, 199, 199); transform-origin: 405.05px 153.625px 0px;" id="elzklsamowelh" class="animable"></polygon><polygon points="72.17 229.4 75.25 229.97 75.94 233.21 76.63 229.97 79.71 229.4 76.64 228.65 75.94 225.58 75.24 228.65 72.17 229.4" style="fill: rgb(199, 199, 199); transform-origin: 75.94px 229.395px 0px;" id="elktt1o1stq" class="animable"></polygon><polygon points="75.94 394.59 79.02 395.16 79.71 398.4 80.39 395.16 83.47 394.59 80.41 393.84 79.71 390.77 79 393.84 75.94 394.59" style="fill: rgb(199, 199, 199); transform-origin: 79.705px 394.585px 0px;" id="elmmdajmgjgx" class="animable"></polygon><polygon points="374.01 232.63 377.09 233.2 377.78 236.45 378.47 233.2 381.55 232.63 378.48 231.88 377.78 228.82 377.08 231.88 374.01 232.63" style="fill: rgb(199, 199, 199); transform-origin: 377.78px 232.635px 0px;" id="elbnhpgssgzd6" class="animable"></polygon><polygon points="302.17 319.14 305.25 319.71 305.94 322.96 306.63 319.71 309.7 319.14 306.64 318.39 305.94 315.33 305.24 318.39 302.17 319.14" style="fill: rgb(199, 199, 199); transform-origin: 305.935px 319.145px 0px;" id="elfefbbo8zon" class="animable"></polygon><polygon points="171.34 75.47 174.42 76.04 175.11 79.29 175.8 76.04 178.88 75.47 175.81 74.72 175.11 71.66 174.41 74.72 171.34 75.47" style="fill: rgb(199, 199, 199); transform-origin: 175.11px 75.475px 0px;" id="elihrhn2cets" class="animable"></polygon><polygon points="282.14 219.72 285.22 220.29 285.9 223.53 286.59 220.29 289.67 219.72 286.61 218.97 285.9 215.9 285.2 218.97 282.14 219.72" style="fill: rgb(199, 199, 199); transform-origin: 285.905px 219.715px 0px;" id="elk3o6erc1d6" class="animable"></polygon><path d="M189.21,436.2a.9.9,0,0,1,0,1.79A.9.9,0,0,1,189.21,436.2Z" style="fill: rgb(199, 199, 199); transform-origin: 189.21px 437.095px 0px;" id="elffyjqi315je" class="animable"></path><path d="M348.42,268.81a.9.9,0,0,1,0,1.79A.9.9,0,0,1,348.42,268.81Z" style="fill: rgb(199, 199, 199); transform-origin: 348.42px 269.705px 0px;" id="elwsossbcgy4p" class="animable"></path><path d="M272.27,344a.89.89,0,0,1,0,1.78A.89.89,0,0,1,272.27,344Z" style="fill: rgb(199, 199, 199); transform-origin: 272.269px 344.89px 0px;" id="eluu3rvdug85f" class="animable"></path><path d="M139.9,429.51a.89.89,0,0,1,0,1.78A.89.89,0,0,1,139.9,429.51Z" style="fill: rgb(199, 199, 199); transform-origin: 139.899px 430.4px 0px;" id="elnarp40epvmf" class="animable"></path><path d="M381.55,430.74a.89.89,0,0,1,0,1.78A.89.89,0,0,1,381.55,430.74Z" style="fill: rgb(199, 199, 199); transform-origin: 381.549px 431.63px 0px;" id="elshoxe1ifs7c" class="animable"></path><path d="M390.89,280.51a.89.89,0,0,1,0,1.78A.89.89,0,0,1,390.89,280.51Z" style="fill: rgb(199, 199, 199); transform-origin: 390.89px 281.4px 0px;" id="el05qsycv6rxhk" class="animable"></path><path d="M211.57,420.15a.63.63,0,0,1,0,1.26A.63.63,0,0,1,211.57,420.15Z" style="fill: rgb(199, 199, 199); transform-origin: 211.57px 420.78px 0px;" id="elo9h93ygavrg" class="animable"></path><path d="M85.49,92.32a.64.64,0,0,1,0,1.27A.64.64,0,0,1,85.49,92.32Z" style="fill: rgb(199, 199, 199); transform-origin: 85.49px 92.955px 0px;" id="eltyadspdvoul" class="animable"></path><path d="M329,295.25a.63.63,0,0,1,0,1.26A.63.63,0,0,1,329,295.25Z" style="fill: rgb(199, 199, 199); transform-origin: 329px 295.88px 0px;" id="eltiq8mhfzt8" class="animable"></path><path d="M298.49,349.88a.63.63,0,0,1,0,1.26A.63.63,0,0,1,298.49,349.88Z" style="fill: rgb(199, 199, 199); transform-origin: 298.49px 350.51px 0px;" id="el7mw7xtx80x" class="animable"></path><path d="M248.54,339.23a.64.64,0,0,1,0,1.27A.64.64,0,0,1,248.54,339.23Z" style="fill: rgb(199, 199, 199); transform-origin: 248.54px 339.865px 0px;" id="eleyxmto0302l" class="animable"></path><path d="M307.59,283.78a1.71,1.71,0,0,1,0,3.42A1.71,1.71,0,0,1,307.59,283.78Z" style="fill: rgb(199, 199, 199); transform-origin: 307.59px 285.49px 0px;" id="eloccz1zy0prd" class="animable"></path><polygon points="137.37 140.64 142.88 141.66 144.11 147.47 145.34 141.66 150.85 140.64 145.37 139.3 144.11 133.81 142.86 139.3 137.37 140.64" style="fill: rgb(199, 199, 199); transform-origin: 144.11px 140.64px 0px;" id="eliub15t9dnt" class="animable"></polygon><polygon points="279.07 95.73 282.15 96.3 282.84 99.54 283.53 96.3 286.61 95.72 283.54 94.98 282.84 91.91 282.14 94.98 279.07 95.73" style="fill: rgb(199, 199, 199); transform-origin: 282.84px 95.725px 0px;" id="elkc9nbp94cho" class="animable"></polygon><path d="M94.58,130.6a.9.9,0,0,1,0,1.79A.9.9,0,0,1,94.58,130.6Z" style="fill: rgb(199, 199, 199); transform-origin: 94.58px 131.495px 0px;" id="ellud0tlus97" class="animable"></path><path d="M68.39,380.7a.9.9,0,0,1,0,1.79A.9.9,0,0,1,68.39,380.7Z" style="fill: rgb(199, 199, 199); transform-origin: 68.3899px 381.595px 0px;" id="elu45w6vwufyn" class="animable"></path><path d="M63.19,431.63a.89.89,0,0,1,0,1.78A.89.89,0,0,1,63.19,431.63Z" style="fill: rgb(199, 199, 199); transform-origin: 63.1895px 432.52px 0px;" id="el3taxx0eruw" class="animable"></path><path d="M89.93,218.82a.9.9,0,0,1,0,1.79A.9.9,0,0,1,89.93,218.82Z" style="fill: rgb(199, 199, 199); transform-origin: 89.93px 219.715px 0px;" id="elh6jy59zwdaw" class="animable"></path><path d="M72.17,63.36a.9.9,0,0,1,0,1.79A.9.9,0,0,1,72.17,63.36Z" style="fill: rgb(199, 199, 199); transform-origin: 72.17px 64.255px 0px;" id="el7u3mazd62c7" class="animable"></path><path d="M125.24,338.15a.64.64,0,0,1,0,1.27A.64.64,0,0,1,125.24,338.15Z" style="fill: rgb(199, 199, 199); transform-origin: 125.24px 338.785px 0px;" id="elb4ihr2s76wn" class="animable"></path><path d="M258.42,419.08a.63.63,0,0,1,0,1.26A.63.63,0,0,1,258.42,419.08Z" style="fill: rgb(199, 199, 199); transform-origin: 258.42px 419.71px 0px;" id="elcjciu1v4drd" class="animable"></path><path d="M352.18,130.23a.64.64,0,0,1,0,1.27A.64.64,0,0,1,352.18,130.23Z" style="fill: rgb(199, 199, 199); transform-origin: 352.18px 130.865px 0px;" id="el446tkotl4te" class="animable"></path><path d="M238.13,91.57a.63.63,0,0,1,0,1.26A.63.63,0,0,1,238.13,91.57Z" style="fill: rgb(199, 199, 199); transform-origin: 238.13px 92.2px 0px;" id="el76u1thktq9v" class="animable"></path><path d="M200.27,315.72a1.71,1.71,0,0,1,0,3.42A1.71,1.71,0,0,1,200.27,315.72Z" style="fill: rgb(199, 199, 199); transform-origin: 200.27px 317.43px 0px;" id="eln8smud3a6l" class="animable"></path><path d="M425.62,186.45a1.72,1.72,0,0,1,0,3.43A1.72,1.72,0,0,1,425.62,186.45Z" style="fill: rgb(199, 199, 199); transform-origin: 425.62px 188.165px 0px;" id="elkfojtpapiub" class="animable"></path><path d="M75.5,336.44a1.71,1.71,0,0,1,0,3.42A1.71,1.71,0,0,1,75.5,336.44Z" style="fill: rgb(199, 199, 199); transform-origin: 75.5px 338.15px 0px;" id="elb80kvtuarw" class="animable"></path><polygon points="219.22 270.6 222.3 271.17 222.99 274.41 223.68 271.17 226.76 270.6 223.69 269.85 222.99 266.78 222.29 269.85 219.22 270.6" style="fill: rgb(199, 199, 199); transform-origin: 222.99px 270.595px 0px;" id="ely0rvpqu1xr" class="animable"></polygon><polygon points="284.63 425.87 287.71 426.44 288.39 429.68 289.08 426.44 292.16 425.86 289.1 425.12 288.39 422.05 287.69 425.12 284.63 425.87" style="fill: rgb(199, 199, 199); transform-origin: 288.395px 425.865px 0px;" id="el5cgk8s3c3s4" class="animable"></polygon><path d="M298.27,385.88a.9.9,0,0,1,0,1.79A.9.9,0,0,1,298.27,385.88Z" style="fill: rgb(199, 199, 199); transform-origin: 298.27px 386.775px 0px;" id="elbw7mkhtoe66" class="animable"></path><path d="M342.61,393.7a.89.89,0,0,1,0,1.78A.89.89,0,0,1,342.61,393.7Z" style="fill: rgb(199, 199, 199); transform-origin: 342.609px 394.59px 0px;" id="elrwa0omjbeen" class="animable"></path><polygon points="222.99 403.13 226.07 403.7 226.76 406.95 227.45 403.7 230.53 403.13 227.46 402.38 226.76 399.31 226.06 402.38 222.99 403.13" style="fill: rgb(199, 199, 199); transform-origin: 226.76px 403.13px 0px;" id="elmdz9qj3i7xf" class="animable"></polygon><path d="M286.77,180.8a.9.9,0,0,1,0,1.79A.9.9,0,0,1,286.77,180.8Z" style="fill: rgb(199, 199, 199); transform-origin: 286.77px 181.695px 0px;" id="elbr6abgb3cm4" class="animable"></path><path d="M371.2,365a.63.63,0,0,1,0,1.26A.63.63,0,0,1,371.2,365Z" style="fill: rgb(199, 199, 199); transform-origin: 371.2px 365.63px 0px;" id="el1142e3d59smj" class="animable"></path><polygon points="102.55 257.62 105.63 258.19 106.31 261.43 107 258.19 110.08 257.62 107.02 256.87 106.31 253.8 105.61 256.87 102.55 257.62" style="fill: rgb(199, 199, 199); transform-origin: 106.315px 257.615px 0px;" id="elxfpmjcwckpe" class="animable"></polygon><path d="M67,306.73a.89.89,0,0,1,0,1.78A.89.89,0,0,1,67,306.73Z" style="fill: rgb(199, 199, 199); transform-origin: 67px 307.62px 0px;" id="el6o2qpclesm6" class="animable"></path><path d="M190.07,241a.89.89,0,0,1,0,1.78A.89.89,0,0,1,190.07,241Z" style="fill: rgb(199, 199, 199); transform-origin: 190.07px 241.89px 0px;" id="elft5pgco5ff" class="animable"></path><path d="M85.49,150.83a.64.64,0,0,1,0,1.27A.64.64,0,0,1,85.49,150.83Z" style="fill: rgb(199, 199, 199); transform-origin: 85.49px 151.465px 0px;" id="eldgapvopc8cq" class="animable"></path><path d="M77.4,145a1.71,1.71,0,0,1,0,3.42A1.71,1.71,0,0,1,77.4,145Z" style="fill: rgb(199, 199, 199); transform-origin: 77.4018px 146.71px 0px;" id="elgkvvc054cb" class="animable"></path><path d="M427.27,69.49a1.71,1.71,0,0,1,0,3.42A1.71,1.71,0,0,1,427.27,69.49Z" style="fill: rgb(199, 199, 199); transform-origin: 427.27px 71.2px 0px;" id="eluzmymge237h" class="animable"></path><circle cx="108.58" cy="81.43" r="27.48" style="fill: rgb(235, 235, 235); transform-origin: 108.58px 81.43px 0px;" id="el5qqelz6kb9i" class="animable"></circle><path d="M118.57,65.13a6.13,6.13,0,0,1-1,3.73,7.41,7.41,0,0,1-3,2.64,5.43,5.43,0,0,1-4,.34,5.65,5.65,0,0,1-3.08-2.36,8.2,8.2,0,0,0,3.3,1.45,4.8,4.8,0,0,0,1.69,0,5.55,5.55,0,0,0,1.6-.52l.76-.41c.24-.17.5-.32.72-.5a8.55,8.55,0,0,0,1.28-1.2A9.38,9.38,0,0,0,118.57,65.13Z" style="fill: rgb(199, 199, 199); transform-origin: 113.035px 68.6014px 0px;" id="elm1qdo6redop" class="animable"></path><path d="M108.7,66.71a3.93,3.93,0,0,1,.57-2.63,5,5,0,0,1,2.07-1.88,3.74,3.74,0,0,1,2.86-.2,3.63,3.63,0,0,1,2.06,1.75,6.11,6.11,0,0,0-2.28-.84,3.69,3.69,0,0,0-2.12.37A6.51,6.51,0,0,0,108.7,66.71Z" style="fill: rgb(199, 199, 199); transform-origin: 112.462px 64.258px 0px;" id="eldclpuvmdrcu" class="animable"></path><path d="M108.57,94.35a3.69,3.69,0,0,1,.07,2.62,4.52,4.52,0,0,1-1.58,2.22,3.59,3.59,0,0,1-2.71.73,3.67,3.67,0,0,1-2.3-1.27,6.59,6.59,0,0,0,2.34.33,3.54,3.54,0,0,0,1.94-.74,5.74,5.74,0,0,0,1.46-1.64A6.81,6.81,0,0,0,108.57,94.35Z" style="fill: rgb(199, 199, 199); transform-origin: 105.448px 97.1522px 0px;" id="el0i2l3c39sk5u" class="animable"></path><path d="M102.89,97.47a2.37,2.37,0,0,1-.19-1.85,3,3,0,0,1,1.1-1.6,2.5,2.5,0,0,1,2-.5,2.39,2.39,0,0,1,1.56,1,5.29,5.29,0,0,0-1.61-.07,2.6,2.6,0,0,0-1.19.51A4.59,4.59,0,0,0,102.89,97.47Z" style="fill: rgb(199, 199, 199); transform-origin: 104.977px 95.4748px 0px;" id="elx0lnyf5czqp" class="animable"></path><path d="M98.67,69.63a2.5,2.5,0,0,1,.79,1.76,2.67,2.67,0,0,1-.78,1.94,2.38,2.38,0,0,1-2,.69,2.85,2.85,0,0,1-1.73-.82,9.05,9.05,0,0,0,1.71-.12,2.17,2.17,0,0,0,1.18-.59,2.77,2.77,0,0,0,.69-1.19A4.88,4.88,0,0,0,98.67,69.63Z" style="fill: rgb(199, 199, 199); transform-origin: 97.2053px 71.8348px 0px;" id="els3lac5tmri8" class="animable"></path><path d="M95.27,72.3a1.57,1.57,0,0,1-.68-1.22,1.86,1.86,0,0,1,.54-1.44,1.74,1.74,0,0,1,1.5-.49,1.81,1.81,0,0,1,1.18.72,9.89,9.89,0,0,0-1.16.23,1.52,1.52,0,0,0-.67.38,2.24,2.24,0,0,0-.46.7A4.06,4.06,0,0,0,95.27,72.3Z" style="fill: rgb(199, 199, 199); transform-origin: 96.1979px 70.7146px 0px;" id="elpn1upgkho3n" class="animable"></path><path d="M117.77,98.59a2.48,2.48,0,0,1-1.52,1.19,2.68,2.68,0,0,1-2.08-.28A2.41,2.41,0,0,1,113,97.72a3,3,0,0,1,.38-1.88,10.08,10.08,0,0,0,.53,1.63,2.2,2.2,0,0,0,.86,1,2.82,2.82,0,0,0,1.33.38A5,5,0,0,0,117.77,98.59Z" style="fill: rgb(199, 199, 199); transform-origin: 115.373px 97.858px 0px;" id="el9cifrrhiqh7" class="animable"></path><path d="M114.35,95.94a1.58,1.58,0,0,1,1-1,1.88,1.88,0,0,1,1.53.18,1.7,1.7,0,0,1,.84,1.34,1.8,1.8,0,0,1-.41,1.31,9.9,9.9,0,0,0-.5-1.06,1.46,1.46,0,0,0-.54-.56,2.23,2.23,0,0,0-.79-.28A4.07,4.07,0,0,0,114.35,95.94Z" style="fill: rgb(199, 199, 199); transform-origin: 116.038px 96.3116px 0px;" id="el9lkiigqrk68" class="animable"></path><path d="M127.18,79.26a2.42,2.42,0,0,1-.59,1.84,2.69,2.69,0,0,1-1.87.93,2.41,2.41,0,0,1-2-.82,2.88,2.88,0,0,1-.74-1.77,8.88,8.88,0,0,0,1.35,1,2.09,2.09,0,0,0,1.27.34A2.75,2.75,0,0,0,126,80.4,5.13,5.13,0,0,0,127.18,79.26Z" style="fill: rgb(199, 199, 199); transform-origin: 124.586px 80.6485px 0px;" id="ellr7ci5p0ltg" class="animable"></path><path d="M122.86,79a1.54,1.54,0,0,1,.3-1.36,1.86,1.86,0,0,1,1.36-.72,1.72,1.72,0,0,1,1.45.64,1.76,1.76,0,0,1,.41,1.31c-.4-.24-.72-.46-1-.6a1.53,1.53,0,0,0-.76-.15,2.12,2.12,0,0,0-.81.21A4.14,4.14,0,0,0,122.86,79Z" style="fill: rgb(199, 199, 199); transform-origin: 124.6px 77.9583px 0px;" id="el8p2jzhl8pnk" class="animable"></path><path d="M90.78,85.48a2.46,2.46,0,0,1-.58,1.84,2.67,2.67,0,0,1-1.87.93,2.38,2.38,0,0,1-2-.82,2.86,2.86,0,0,1-.74-1.76,9,9,0,0,0,1.36,1,2.15,2.15,0,0,0,1.27.35,2.82,2.82,0,0,0,1.31-.43A5,5,0,0,0,90.78,85.48Z" style="fill: rgb(199, 199, 199); transform-origin: 88.1909px 86.869px 0px;" id="ela519rg21a6q" class="animable"></path><path d="M86.47,85.21a1.58,1.58,0,0,1,.29-1.36,1.92,1.92,0,0,1,1.37-.72,1.71,1.71,0,0,1,1.44.64A1.79,1.79,0,0,1,90,85.09a8.79,8.79,0,0,0-1-.6,1.43,1.43,0,0,0-.76-.16,2.32,2.32,0,0,0-.8.21A4,4,0,0,0,86.47,85.21Z" style="fill: rgb(199, 199, 199); transform-origin: 88.2144px 84.1684px 0px;" id="elupn1tew91fn" class="animable"></path></g><g id="freepik--Floor--inject-65" style="transform-origin: 250px 463.196px 0px;" class="animable"><path d="M54.55,463.2c125.22-.62,265.68-.62,390.9,0-125.22.61-265.68.61-390.9,0Z" style="fill: rgb(38, 50, 56); transform-origin: 250px 463.196px 0px;" id="elc8rok1rdu7e" class="animable"></path></g><g id="freepik--Character--inject-65" style="transform-origin: 250.023px 255.009px 0px;" class="animable animator-active"><path d="M246.58,203c-.8,1.18-64.93,2.34-68.72,1.63a2.53,2.53,0,0,1-.53-.16c-4.77-1.66-21.94-14.24-23.68-15.65-4.31-3.49,17.08-96.92,27-108.07,2.5-2.8,49.89-4.08,58.84-1.06C243.36,81,253,92.78,253.41,94.31v0C253.87,96.57,247.38,201.83,246.58,203Z" style="fill: rgb(0, 255, 136); transform-origin: 203.259px 141.399px 0px;" id="elvsoow4xenr" class="animable"></path><g id="elwggkp858via"><path d="M246.58,203c-.8,1.18-64.93,2.34-68.72,1.63a2.53,2.53,0,0,1-.53-.16c-4.77-1.66-21.94-14.24-23.68-15.65-4.31-3.49,17.08-96.92,27-108.07,2.5-2.8,49.89-4.08,58.84-1.06C243.36,81,253,92.78,253.41,94.31v0C253.87,96.57,247.38,201.83,246.58,203Z" style="opacity: 0.1; transform-origin: 203.259px 141.399px 0px;" class="animable"></path></g><g id="eleavcr9z9inl"><path d="M246.58,203c-.8,1.18-64.93,2.34-68.72,1.63a2.53,2.53,0,0,1-.53-.16c-1.77-16.22,17.54-109.16,18.47-109.81s46.56-.24,57.6-.36C253.87,96.57,247.38,201.83,246.58,203Z" style="opacity: 0.1; transform-origin: 215.32px 149.564px 0px;" class="animable"></path></g><path d="M191,116.1c-.06.33-.13.64-.19,1-7.21-2.25-14.58-4.29-21.6-7.09l.12-.42C176.43,112,183.75,113.94,191,116.1Z" style="fill: rgb(0, 255, 136); transform-origin: 180.105px 113.345px 0px;" id="el64s84mpkjdi" class="animable"></path><path d="M190.3,119.4c-.07.32-.14.65-.2,1-7.3-2.27-14.76-4.34-21.87-7.17l.12-.41C175.58,115.24,183,117.22,190.3,119.4Z" style="fill: rgb(0, 255, 136); transform-origin: 179.265px 116.61px 0px;" id="el22hqpsmb0u7" class="animable"></path><path d="M189.63,122.71c-.06.32-.13.64-.2,1l-.2,0c-7.31-2.28-14.79-4.35-21.91-7.17,0-.14.07-.28.11-.42,7.27,2.46,14.73,4.44,22.07,6.65A.61.61,0,0,1,189.63,122.71Z" style="fill: rgb(0, 255, 136); transform-origin: 178.475px 119.915px 0px;" id="elw8q9bbe2jw" class="animable"></path><path d="M179.52,179.35c-.05.33-.09.65-.14,1-1.06-.43-2.1-.88-3.15-1.33-7-3.48-14.21-6.77-20.91-10.79,0-.14.05-.29.08-.43,6.95,3.69,14.17,6.91,21.23,10.32C177.57,178.51,178.54,178.94,179.52,179.35Z" style="fill: rgb(0, 255, 136); transform-origin: 167.42px 174.075px 0px;" id="elz8v7tu4l2qi" class="animable"></path><path d="M179,182.79c0,.32-.09.64-.13.94-1.39-.54-2.75-1.11-4.12-1.71-6.71-3.33-13.61-6.49-20.08-10.31,0-.16,0-.32.08-.47,6.69,3.51,13.64,6.6,20.42,9.88C176.45,181.7,177.73,182.26,179,182.79Z" style="fill: rgb(0, 255, 136); transform-origin: 166.835px 177.485px 0px;" id="elxe2ahx8rns" class="animable"></path><path d="M178.57,186.23l-.12,1c-1.7-.68-3.4-1.37-5.08-2.11-6.42-3.18-13-6.22-19.22-9.81,0-.17,0-.35.08-.52,6.42,3.32,13.06,6.29,19.56,9.43C175.33,184.88,176.93,185.56,178.57,186.23Z" style="fill: rgb(0, 255, 136); transform-origin: 166.36px 181.01px 0px;" id="eldfks1wbf04" class="animable"></path><path d="M195.18,147a4.06,4.06,0,1,1-2.51-5.34A4.17,4.17,0,0,1,195.18,147Z" style="fill: rgb(0, 255, 136); transform-origin: 191.384px 145.517px 0px;" id="eln78ba9gqeuh" class="animable"></path><g id="el8z4j8pl4jv5"><path d="M194,146.56a2.78,2.78,0,1,1-1.72-3.66A2.86,2.86,0,0,1,194,146.56Z" style="opacity: 0.1; transform-origin: 191.401px 145.541px 0px;" class="animable"></path></g><path d="M192.55,162.16a4.06,4.06,0,1,1-2.51-5.33A4.17,4.17,0,0,1,192.55,162.16Z" style="fill: rgb(0, 255, 136); transform-origin: 188.751px 160.685px 0px;" id="elkk830xo8n8q" class="animable"></path><g id="el1ayb5qkthej"><path d="M191.34,161.76a2.78,2.78,0,1,1-1.72-3.66A2.86,2.86,0,0,1,191.34,161.76Z" style="opacity: 0.1; transform-origin: 188.741px 160.741px 0px;" class="animable"></path></g><path d="M243.94,117.7c11.23,23.19,20.73,47,34.09,51,12.7,3.75,44.21-27.19,49.72-37.62,1.9-3.59-24.21-20.3-27.71-17.72-6.6,4.86-18.72,20.39-20.71,19.92s-13.83-15-28.84-28.29C241.39,96.91,236.15,101.64,243.94,117.7Z" style="fill: rgb(211, 118, 106); transform-origin: 284.001px 135.067px 0px;" id="el8zv4v3c627g" class="animable"></path><path d="M322.18,138.77c2.6-2.49,16.69-19.33,19-23.47s7.92-16.51,4.92-18.56-4.93,1.43-4.93,1.43,1.56-5.6-1.64-7.4-6.05,3.74-6.05,3.74,1.19-5.87-2.13-7.44-5.25,4.48-5.25,4.48,1.33-5.32-1.95-5.45c-3.94-.17-5.29,9.91-8.13,14.29-.65,1-14.52,19.22-14.52,19.22Z" style="fill: rgb(55, 71, 79); transform-origin: 324.231px 112.434px 0px;" id="elkg2w8hslzd" class="animable"></path><path d="M326.23,91c-1,7.41-2.73,10.47-7.46,16.11-.1.11.05.28.15.17,5.14-5.1,7.86-8.64,7.67-16.25C326.58,90.69,326.28,90.68,326.23,91Z" style="fill: rgb(38, 50, 56); transform-origin: 322.668px 99.0414px 0px;" id="elmghyaarm1nq" class="animable"></path><path d="M333.51,93.92c-1.72,7.6-3.56,11-8.08,17.22-.06.09.08.2.15.12,4.95-5.78,7.58-9.37,8.3-17.2C333.92,93.71,333.59,93.57,333.51,93.92Z" style="fill: rgb(38, 50, 56); transform-origin: 329.649px 102.502px 0px;" id="eldgtsub610gc" class="animable"></path><path d="M340.89,98.48c-2.2,7.25-4.06,11-9.23,16.52a.14.14,0,0,0,.19.2c5.82-5.11,8.18-9.78,9.25-16.63C341.17,98.11,341,98,340.89,98.48Z" style="fill: rgb(38, 50, 56); transform-origin: 336.374px 106.696px 0px;" id="el3h52ukx7tuk" class="animable"></path><path d="M296.72,121.57s.44-9.36,1.54-13.43S309,90.4,312.1,92.33c4,2.48-.07,11.47-2.62,15.61,0,0,9.17,5.73,7.68,12.81S296.72,121.57,296.72,121.57Z" style="fill: rgb(55, 71, 79); transform-origin: 307.022px 108.134px 0px;" id="elhq803u15gs6" class="animable"></path><path d="M313,93.37c2,4.87-1.72,10.09-3.89,14.29a.44.44,0,0,0,.3.65c3.68,2.66,8.11,7.48,8,12.28a.11.11,0,0,0,.22,0c.79-5.13-3.17-10.23-7.39-12.88,2.3-4.28,5.77-9.68,2.78-14.39C313,93.32,313,93.33,313,93.37Z" style="fill: rgb(38, 50, 56); transform-origin: 313.392px 107.01px 0px;" id="elrfxm6egqxz" class="animable"></path><path d="M297.18,115.24l26.64,22.68a19.16,19.16,0,0,1-5.08,9.24C308.4,157.34,287.31,172.51,278.5,170c-12.37-3.52-30.07-36.75-36.94-58.42-4.75-15,3.42-12.34,11.85-4.8s25.71,25.06,26.71,24.82c.6-.14,9.42-10.43,11.34-12.48A13.06,13.06,0,0,1,297.18,115.24Z" style="fill: rgb(0, 255, 136); transform-origin: 281.989px 135.492px 0px;" id="el9toghp6c9i5" class="animable"></path><g id="el6v24o79fazu"><g style="opacity: 0.4; transform-origin: 281.989px 135.492px 0px;" class="animable"><path d="M297.18,115.24l26.64,22.68a19.16,19.16,0,0,1-5.08,9.24C308.4,157.34,287.31,172.51,278.5,170c-12.37-3.52-30.07-36.75-36.94-58.42-4.75-15,3.42-12.34,11.85-4.8s25.71,25.06,26.71,24.82c.6-.14,9.42-10.43,11.34-12.48A13.06,13.06,0,0,1,297.18,115.24Z" style="fill: rgb(255, 255, 255); transform-origin: 281.989px 135.492px 0px;" id="eldd1qn6oiem" class="animable"></path></g></g><g id="elzicb805gvjc"><path d="M316.27,143.83c-3.93-3.37-19.5-17.74-22.66-21.07-.21-.24-.12-.43.14-.22,12,9.81,19,17.63,22.65,21.13C316.49,143.76,316.37,143.92,316.27,143.83Z" style="opacity: 0.1; transform-origin: 304.963px 133.153px 0px;" class="animable"></path></g><g id="el84dzjuazl1j"><path d="M286.07,169.25c-3,1-5.59,1.31-7.58.75-12.36-3.51-30.07-36.75-36.93-58.42-.16-.48-.3-1-.42-1.4s-.28-1-.39-1.5l-.09-.4c-.83-3.71-.56-5.89.43-6.89a2.37,2.37,0,0,1,.95-.57,3.62,3.62,0,0,1,1.45-.08,0,0,0,0,0,0,0h0a7.3,7.3,0,0,1,1.26.62C255.93,118.06,276.17,152.62,286.07,169.25Z" style="fill: rgb(0, 1, 2); opacity: 0.1; transform-origin: 263.119px 135.489px 0px;" class="animable"></path></g><polygon points="281.25 130.34 278.92 130.38 277.95 168.27 284.55 168.17 281.25 130.34" style="fill: rgb(0, 255, 136); transform-origin: 281.25px 149.305px 0px;" id="eldq53kms821i" class="animable"></polygon><path d="M273.88,155.3c-4.89,1.24-6.21,10.64-2.54,12.65,4.88,2.67,18.21,3.43,21.64.6,2.33-1.92,2.81-10.45-.37-12-1.9-.94-4.5-.69-10-.86C280.41,155.62,277.14,154.48,273.88,155.3Z" style="fill: rgb(0, 255, 136); transform-origin: 282.05px 162.674px 0px;" id="el43tjivzl9g6" class="animable"></path><g id="el3qsi536adps"><path d="M273.88,155.3c-4.89,1.24-6.21,10.64-2.54,12.65,4.88,2.67,18.21,3.43,21.64.6,2.33-1.92,2.81-10.45-.37-12-1.9-.94-4.5-.69-10-.86C280.41,155.62,277.14,154.48,273.88,155.3Z" style="fill: rgb(255, 255, 255); opacity: 0.7; transform-origin: 282.05px 162.674px 0px;" class="animable"></path></g><g id="el7351vty6g8a"><g style="opacity: 0.7; transform-origin: 282.078px 162.81px 0px;" class="animable"><path d="M292.91,157.91a10.79,10.79,0,0,1-1,10.46,40.75,40.75,0,0,0,1-10.46Z" style="fill: rgb(0, 255, 136); transform-origin: 292.864px 163.14px 0px;" id="eljbcr1uiv86" class="animable"></path><path d="M290.82,157.06a14.44,14.44,0,0,1-1.09,11.83,69.78,69.78,0,0,0,1.09-11.83Z" style="fill: rgb(0, 255, 136); transform-origin: 290.67px 162.975px 0px;" id="elil05vl0ljl" class="animable"></path><path d="M288.45,156.88a15.5,15.5,0,0,1-1.16,12.46,65.74,65.74,0,0,0,1.16-12.46Z" style="fill: rgb(0, 255, 136); transform-origin: 288.27px 163.11px 0px;" id="eltl6396za7yh" class="animable"></path><path d="M285.58,156.66c1.32,4.14,1.22,9-1.05,12.84a64.1,64.1,0,0,0,1.05-12.84Z" style="fill: rgb(0, 255, 136); transform-origin: 285.483px 163.08px 0px;" id="el6jsthjm1dei" class="animable"></path><path d="M271.28,167a9.91,9.91,0,0,1,.92-10,36.75,36.75,0,0,0-.92,10Z" style="fill: rgb(0, 255, 136); transform-origin: 271.269px 162px 0px;" id="el071l9ljtuhia" class="animable"></path><path d="M273.33,168.27a14.41,14.41,0,0,1,1.09-11.83,68.77,68.77,0,0,0-1.09,11.83Z" style="fill: rgb(0, 255, 136); transform-origin: 273.479px 162.355px 0px;" id="elrn841sm8tw8" class="animable"></path><path d="M275.7,168.45A15.49,15.49,0,0,1,276.85,156a66.56,66.56,0,0,0-1.15,12.46Z" style="fill: rgb(0, 255, 136); transform-origin: 275.874px 162.23px 0px;" id="eldc06c0suaf5" class="animable"></path><path d="M278.23,169.12c-1.23-4.2-1.07-9.11,1.2-12.93a71.67,71.67,0,0,0-1.2,12.93Z" style="fill: rgb(0, 255, 136); transform-origin: 278.449px 162.655px 0px;" id="el3aoew5d0jcw" class="animable"></path><path d="M280.41,169.29c-1.23-4.2-1.07-9.11,1.2-12.94a71.78,71.78,0,0,0-1.2,12.94Z" style="fill: rgb(0, 255, 136); transform-origin: 280.629px 162.82px 0px;" id="el1zgavun7mee" class="animable"></path><path d="M283.22,156.48a23.35,23.35,0,0,1-.85,13.14c.26-4.35.37-8.79.85-13.14Z" style="fill: rgb(0, 255, 136); transform-origin: 283.08px 163.05px 0px;" id="el027eg1lhw82d" class="animable"></path></g></g><path d="M321,463.35l-3.84,0a3.38,3.38,0,0,0-.24-1.2,3.7,3.7,0,0,0-4.86-1.87,3.87,3.87,0,0,0-2.4,3l-3.49,0A3.37,3.37,0,0,0,306,462a3.68,3.68,0,0,0-4.86-1.87,3.81,3.81,0,0,0-2.38,3.07l-3.5,0a3.24,3.24,0,0,0-.25-1.28,3.67,3.67,0,0,0-4.85-1.87,3.79,3.79,0,0,0-2.39,3.11l-3.49,0a3.41,3.41,0,0,0-.26-1.32,3.68,3.68,0,0,0-4.86-1.87,3.8,3.8,0,0,0-2.39,3.15l-3.49,0a3.21,3.21,0,0,0-.24-1.36,3.69,3.69,0,0,0-4.86-1.87,3.8,3.8,0,0,0-2.4,3.2l-3.48,0a3.26,3.26,0,0,0-.24-1.41,3.69,3.69,0,0,0-4.86-1.87,3.82,3.82,0,0,0-2.41,3.23l-3.49,0a3.17,3.17,0,0,0-.24-1.45,3.68,3.68,0,0,0-4.85-1.87,3.81,3.81,0,0,0-2.41,3.28h-3.28l-.22-7.3,81.1.81Z" style="fill: rgb(0, 255, 136); transform-origin: 280.85px 459.525px 0px;" id="elqkvshbwp11" class="animable"></path><path d="M319.89,457.86c-2.63.85-77.45-.12-80.27-2-1.09-.68-1.58-11.59-1.8-24.79v-.42c0-2.72-.09-5.52-.09-8.36,0-.39,0-.78,0-1.17l1.65-38.81,50.06.5-3,38.45-.05,1.52-.31,8,0,.82s28.47,13.18,31.36,15.54S322.51,457,319.89,457.86Z" style="fill: rgb(0, 255, 136); transform-origin: 279.397px 420.24px 0px;" id="ell7cb5s9gp9" class="animable"></path><g id="elwep3868dls9"><path d="M319.89,457.86c-2.63.85-77.45-.12-80.27-2-1.09-.68-1.58-11.59-1.8-24.79v-.42c0-2.72-.09-5.52-.09-8.36,0-.39,0-.78,0-1.17l1.65-38.81,50.06.5-3,38.45-.05,1.52-.31,8,0,.82s28.47,13.18,31.36,15.54S322.51,457,319.89,457.86Z" style="fill: rgb(255, 255, 255); opacity: 0.7; transform-origin: 279.397px 420.24px 0px;" class="animable"></path></g><path d="M319.08,455c-12.61-.47-63.51-1.19-76-.7-.1,0-.1.07,0,.08,12.49.74,63.39,1.05,76,.83C319.34,455.15,319.34,455,319.08,455Z" style="fill: rgb(0, 255, 136); transform-origin: 281.14px 454.708px 0px;" id="el4d6ywu5d64s" class="animable"></path><path d="M289.38,431.23c-4.95-1-11-.3-14.87,3.18-.15.14.05.35.21.3a70,70,0,0,1,14.64-2.85A.32.32,0,0,0,289.38,431.23Z" style="fill: rgb(0, 255, 136); transform-origin: 282.046px 432.765px 0px;" id="elagb2xbf44zk" class="animable"></path><path d="M292.94,433.44c-4.95-1-11-.31-14.87,3.18-.15.13,0,.34.2.3a69.45,69.45,0,0,1,14.64-2.85A.32.32,0,0,0,292.94,433.44Z" style="fill: rgb(0, 255, 136); transform-origin: 285.6px 434.973px 0px;" id="eld23hoejgabq" class="animable"></path><path d="M296.49,435.65c-4.95-1-11-.31-14.87,3.18-.15.13.05.34.21.29a70,70,0,0,1,14.63-2.85A.31.31,0,0,0,296.49,435.65Z" style="fill: rgb(0, 255, 136); transform-origin: 289.176px 437.179px 0px;" id="elgj5c2y3babf" class="animable"></path><g id="el84q36zptob3"><g style="opacity: 0.5; transform-origin: 285.621px 434.97px 0px;" class="animable"><path d="M289.38,431.23c-4.95-1-11-.3-14.87,3.18-.15.14.05.35.21.3a70,70,0,0,1,14.64-2.85A.32.32,0,0,0,289.38,431.23Z" style="fill: rgb(255, 255, 255); transform-origin: 282.046px 432.765px 0px;" id="elgjdvf9orlbi" class="animable"></path><path d="M292.94,433.44c-4.95-1-11-.31-14.87,3.18-.15.13,0,.34.2.3a69.45,69.45,0,0,1,14.64-2.85A.32.32,0,0,0,292.94,433.44Z" style="fill: rgb(255, 255, 255); transform-origin: 285.6px 434.973px 0px;" id="elsq03jozljxc" class="animable"></path><path d="M296.49,435.65c-4.95-1-11-.31-14.87,3.18-.15.13.05.34.21.29a70,70,0,0,1,14.63-2.85A.31.31,0,0,0,296.49,435.65Z" style="fill: rgb(255, 255, 255); transform-origin: 289.176px 437.179px 0px;" id="elrsq5j3qzgi" class="animable"></path></g></g><path d="M278.34,457.85c-4-.08-8-.18-11.75-.28-14.17-.39-25.88-1-27-1.68s-1.56-11.29-1.78-24.24c0-.19,0-.37,0-.55s0-.29,0-.43h.05C244.48,435.31,267.76,450.81,278.34,457.85Z" style="fill: rgb(0, 255, 136); transform-origin: 258.075px 444.26px 0px;" id="elf6y1j2ued3o" class="animable"></path><path d="M287.69,453.59a24.14,24.14,0,0,1,6.56-7.07c6-4,14.42-4.17,16-3.95s9.05,3.73,10.42,7.67,1.42,7.38.82,7.8-80.75-.07-81.88-.89-1.12-4-1.12-4Z" style="fill: rgb(0, 255, 136); transform-origin: 280.173px 450.351px 0px;" id="elz266iy5t8vd" class="animable"></path><g id="ela4z0z0553vm"><path d="M287.69,453.59a24.14,24.14,0,0,1,6.56-7.07c6-4,14.42-4.17,16-3.95s9.05,3.73,10.42,7.67,1.42,7.38.82,7.8-80.75-.07-81.88-.89-1.12-4-1.12-4Z" style="fill: rgb(255, 255, 255); opacity: 0.5; transform-origin: 280.173px 450.351px 0px;" class="animable"></path></g><ellipse cx="241.53" cy="435.79" rx="7.85" ry="10.32" style="fill: rgb(0, 255, 136); transform-origin: 241.53px 435.79px 0px;" id="elxt3nw0hsdi" class="animable"></ellipse><g id="elded3p7gura"><ellipse cx="241.53" cy="435.79" rx="7.85" ry="10.32" style="fill: rgb(255, 255, 255); opacity: 0.5; transform-origin: 241.53px 435.79px 0px;" class="animable"></ellipse></g><g id="ell895gt4d82k"><ellipse cx="240.26" cy="435.79" rx="6.44" ry="8.47" style="fill: rgb(255, 255, 255); opacity: 0.5; transform-origin: 240.26px 435.79px 0px;" class="animable"></ellipse></g><path d="M289.38,415.12H235.49s-1.77-2.86-1-12.4c2.89-33.79,7.45-97.91,7.12-99.62-.54-2.81-30.56-136.3-30.56-136.3h50.24s3.72,16.87,10.43,38.83c10.93,35.67,22.56,84.78,24,96.71,1.92,15.89-2,75.47-4.06,102.09A42.79,42.79,0,0,1,289.38,415.12Z" style="fill: rgb(0, 255, 136); transform-origin: 253.642px 290.96px 0px;" id="el2sq1v8g5pvm" class="animable"></path><g id="elx2iauksb6d9"><path d="M289.38,415.12H235.49s-1.77-2.86-1-12.4c2.89-33.79,7.45-97.91,7.12-99.62-.54-2.81-30.56-136.3-30.56-136.3h50.24s3.72,16.87,10.43,38.83c10.93,35.67,22.56,84.78,24,96.71,1.92,15.89-2,75.47-4.06,102.09A42.79,42.79,0,0,1,289.38,415.12Z" style="fill: rgb(255, 255, 255); opacity: 0.4; transform-origin: 253.642px 290.96px 0px;" class="animable"></path></g><g id="el12hmxa8vo4mh"><path d="M287,405.92c-8.23-.17-5.86-.24-14.09-.32-4,0-30.5-.27-34.26.36-.09,0-.09.15,0,.17,3.76.62,30.23.39,34.26.35,8.23-.08,5.86-.15,14.09-.32A.12.12,0,0,0,287,405.92Z" style="opacity: 0.1; transform-origin: 262.851px 406.049px 0px;" class="animable"></path></g><g id="elve7i7nbhj17"><path d="M249.33,295.19c-1.43-7.79-3.57-15.42-5.44-23.07q-5.67-23.31-11.43-46.58-2.88-11.64-5.77-23.28c-1-3.91-1.95-7.83-2.95-11.73s-2.08-7.62-3-11.48c-.35-1.57-.55-.71-.09,1.29.92,4,1.83,8,2.78,12q2.84,11.91,5.69,23.81,5.68,23.67,11.47,47.32,2.88,11.87,5.78,23.71a115.62,115.62,0,0,1,2.37,11.48,65.28,65.28,0,0,1,.38,12.27c-.42,8.24-1.19,16.47-1.81,24.7s-1.24.66-1.86,8.91q-1.85,24.6-3.66,49.21c-.15,2.08-.3,4.16-.43,6.24,0,.7.36.78.42.11,1.44-16.22,3-32.63,4.23-48.87s2.46-16.51,3.69-32.68c.31-4.06.66-8.12.66-12.2A61.71,61.71,0,0,0,249.33,295.19Z" style="opacity: 0.1; transform-origin: 235.371px 289.4px 0px;" class="animable"></path></g><polygon points="239.57 305.95 239.57 299.59 291.96 296.41 291.96 307.15 239.57 305.95" style="fill: rgb(0, 255, 136); transform-origin: 265.765px 301.78px 0px;" id="elaiqv73k2i6" class="animable"></polygon><path d="M264.11,286.72c3.28-8.89,25.18-10.8,29.51-4,5.76,9.1,6.38,33.59-.47,39.71-4.66,4.17-24.44,4.58-27.8-1.33-2-3.55-3.3-7.63-3.21-17.77C262.17,299.39,261.92,292.66,264.11,286.72Z" style="fill: rgb(0, 255, 136); transform-origin: 280.125px 302.091px 0px;" id="el60zb6h337g" class="animable"></path><g id="elkqlmfbve4w"><path d="M264.11,286.72c3.28-8.89,25.18-10.8,29.51-4,5.76,9.1,6.38,33.59-.47,39.71-4.66,4.17-24.44,4.58-27.8-1.33-2-3.55-3.3-7.63-3.21-17.77C262.17,299.39,261.92,292.66,264.11,286.72Z" style="fill: rgb(255, 255, 255); opacity: 0.7; transform-origin: 280.125px 302.091px 0px;" class="animable"></path></g><g id="elgzngtlv9bxa"><g style="opacity: 0.7; transform-origin: 280.985px 302.179px 0px;" class="animable"><path d="M268.5,321.78a70.7,70.7,0,0,0,24.31-1.2,36.63,36.63,0,0,1-24.31,1.2Z" style="fill: rgb(0, 255, 136); transform-origin: 280.655px 321.941px 0px;" id="ele4730p7li5r" class="animable"></path><path d="M266.71,317.9c9.18.54,18.46.5,27.49-1.36-8.72,3.21-18.46,3.27-27.49,1.36Z" style="fill: rgb(0, 255, 136); transform-origin: 280.455px 317.859px 0px;" id="eloacgyuklggq" class="animable"></path><path d="M266.5,313.53c8.45.51,17,.6,25.36-.78,1.21-.13,2.38-.46,3.59-.65-9.19,3.35-19.44,3.4-28.95,1.43Z" style="fill: rgb(0, 255, 136); transform-origin: 280.975px 313.475px 0px;" id="elnl2gtt1xxae" class="animable"></path><path d="M266.24,308.26c9.94.69,20,.84,29.82-1.21-9.49,3.41-20,3.26-29.82,1.21Z" style="fill: rgb(0, 255, 136); transform-origin: 281.15px 308.386px 0px;" id="elo8jx6vnvjeg" class="animable"></path><path d="M291.3,282.6a64.73,64.73,0,0,0-23.21,1.14,33.55,33.55,0,0,1,23.21-1.14Z" style="fill: rgb(0, 255, 136); transform-origin: 279.695px 282.398px 0px;" id="elmfaf480rb87" class="animable"></path><path d="M294.19,286.43c-9.18-.54-18.46-.5-27.49,1.36,8.72-3.22,18.46-3.27,27.49-1.36Z" style="fill: rgb(0, 255, 136); transform-origin: 280.445px 286.47px 0px;" id="el62qzjnvzk0r" class="animable"></path><path d="M294.4,290.79c-8.45-.5-17-.59-25.36.78-1.21.14-2.38.46-3.59.65,9.19-3.34,19.44-3.4,28.95-1.43Z" style="fill: rgb(0, 255, 136); transform-origin: 279.925px 290.847px 0px;" id="el9kbthwf5m1h" class="animable"></path><path d="M295.74,295.48c-10-.53-20.19-.59-30.06,1.48,9.56-3.42,20.17-3.37,30.06-1.48Z" style="fill: rgb(0, 255, 136); transform-origin: 280.71px 295.576px 0px;" id="el2dx07day91t" class="animable"></path><path d="M295.93,299.48c-10-.52-20.19-.59-30.05,1.49,9.56-3.43,20.17-3.38,30.05-1.49Z" style="fill: rgb(0, 255, 136); transform-origin: 280.905px 299.581px 0px;" id="elrno7e7atm7" class="animable"></path><path d="M266,303.93c9.9-.07,20.69,0,30.52-.84-10,2.19-20.41,2.12-30.52.84Z" style="fill: rgb(0, 255, 136); transform-origin: 281.26px 303.959px 0px;" id="el3sbyvbymx9t" class="animable"></path></g></g><path d="M277.35,224.76a221.49,221.49,0,0,1-25,5.73c-8.77.92-17.63,2.21-26.44,2.14a1.89,1.89,0,0,0-.05-.23c8.8-.51,17.6-1.87,26.36-2.89,7-.95,14.74-2.89,21.73-4.31l3.34-.7C277.3,224.58,277.33,224.67,277.35,224.76Z" style="fill: rgb(0, 255, 136); transform-origin: 251.605px 228.566px 0px;" id="elaurr0p5daws" class="animable"></path><path d="M278.24,228a221.16,221.16,0,0,1-25.47,5.87c-8.66.92-17.42,2.18-26.12,2.15,0-.09,0-.16-.05-.24,8.69-.55,17.39-1.87,26-2.89,7-.94,14.74-2.89,21.74-4.31l3.8-.79C278.2,227.81,278.22,227.87,278.24,228Z" style="fill: rgb(0, 255, 136); transform-origin: 252.42px 231.905px 0px;" id="el8ksrc8zspkm" class="animable"></path><path d="M279.12,231.17a224.81,224.81,0,0,1-25.92,6c-8.56.92-17.2,2.15-25.8,2.16l-.06-.27c8.59-.56,17.18-1.87,25.73-2.87,7-.94,14.74-2.88,21.74-4.31l4.26-.89A1.46,1.46,0,0,1,279.12,231.17Z" style="fill: rgb(0, 255, 136); transform-origin: 253.23px 235.16px 0px;" id="elc5xo32hcsff" class="animable"></path><g id="el3sps4j75tk9"><path d="M251.59,166.8c-2.73,21-11,73.36-16,108.87-8.72-39-23.78-105.88-24.43-108.77a.08.08,0,0,1,0,0,.28.28,0,0,1,0-.06Z" style="opacity: 0.1; transform-origin: 231.374px 221.235px 0px;" class="animable"></path></g><path d="M263.16,463.35l-3.85,0a3.17,3.17,0,0,0-.24-1.2,3.69,3.69,0,0,0-4.86-1.87,3.86,3.86,0,0,0-2.39,3l-3.49,0a3.39,3.39,0,0,0-.25-1.24,3.68,3.68,0,0,0-4.86-1.87,3.85,3.85,0,0,0-2.38,3.07l-3.5,0a3.23,3.23,0,0,0-.24-1.28,3.68,3.68,0,0,0-4.86-1.87,3.78,3.78,0,0,0-2.38,3.11l-3.49,0a3.61,3.61,0,0,0-.26-1.32,3.68,3.68,0,0,0-4.86-1.87,3.8,3.8,0,0,0-2.39,3.15l-3.49,0a3.37,3.37,0,0,0-.24-1.36,3.7,3.7,0,0,0-4.86-1.87,3.8,3.8,0,0,0-2.4,3.2l-3.49,0a3.11,3.11,0,0,0-.24-1.41,3.67,3.67,0,0,0-4.85-1.87,3.8,3.8,0,0,0-2.41,3.23l-3.5,0a3.16,3.16,0,0,0-.23-1.45,3.69,3.69,0,0,0-4.86-1.87,3.8,3.8,0,0,0-2.4,3.28H182.6l-.22-7.3,81.11.81Z" style="fill: rgb(0, 255, 136); transform-origin: 222.935px 459.545px 0px;" id="el1glvvp6xxsf" class="animable"></path><path d="M262.8,458.58c-2.62.86-77.44.16-80.27-1.67-1.09-.68-1.63-11.59-1.89-24.79v-.42c-.06-2.72-.1-5.52-.12-8.36,0-.39,0-.78,0-1.17-.17-19.05,1.2-38.81,1.2-38.81l48.91.31-1.36,38.46-.06,1.52-.27,8,0,.82s28.52,13.08,31.42,15.43S265.42,457.74,262.8,458.58Z" style="fill: rgb(0, 255, 136); transform-origin: 222.242px 421.153px 0px;" id="elv1mkv5l6ibr" class="animable"></path><g id="elnsjghukabkd"><path d="M262.8,458.58c-2.62.86-77.44.16-80.27-1.67-1.09-.68-1.63-11.59-1.89-24.79v-.42c-.06-2.72-.1-5.52-.12-8.36,0-.39,0-.78,0-1.17-.17-19.05,1.2-38.81,1.2-38.81l48.91.31-1.36,38.46-.06,1.52-.27,8,0,.82s28.52,13.08,31.42,15.43S265.42,457.74,262.8,458.58Z" style="fill: rgb(255, 255, 255); opacity: 0.7; transform-origin: 222.242px 421.153px 0px;" class="animable"></path></g><path d="M262,455.67c-12.61-.42-63.51-1-76-.42-.1,0-.1.07,0,.08,12.49.7,63.4.82,76,.55C262.25,455.88,262.25,455.68,262,455.67Z" style="fill: rgb(0, 255, 136); transform-origin: 224.056px 455.509px 0px;" id="elr3qyr160usq" class="animable"></path><path d="M231.65,432c-5-1-11-.27-14.86,3.23-.14.14.05.35.21.3a70,70,0,0,1,14.63-2.91A.31.31,0,0,0,231.65,432Z" style="fill: rgb(0, 255, 136); transform-origin: 224.346px 433.563px 0px;" id="elru4l89du1kf" class="animable"></path><path d="M235.22,434.22c-5-1-11-.27-14.86,3.23-.15.14,0,.35.21.3a69.23,69.23,0,0,1,14.62-2.9A.32.32,0,0,0,235.22,434.22Z" style="fill: rgb(0, 255, 136); transform-origin: 227.885px 435.783px 0px;" id="elme6ybqkb20e" class="animable"></path><path d="M238.78,436.41c-5-1-11-.26-14.86,3.24-.15.13.05.34.21.29a69.23,69.23,0,0,1,14.62-2.9A.32.32,0,0,0,238.78,436.41Z" style="fill: rgb(0, 255, 136); transform-origin: 231.449px 437.974px 0px;" id="elndkqma9o1ro" class="animable"></path><g id="elp1mssptvma9"><g style="opacity: 0.5; transform-origin: 227.886px 435.768px 0px;" class="animable"><path d="M231.65,432c-5-1-11-.27-14.86,3.23-.14.14.05.35.21.3a70,70,0,0,1,14.63-2.91A.31.31,0,0,0,231.65,432Z" style="fill: rgb(255, 255, 255); transform-origin: 224.346px 433.563px 0px;" id="el8sswt7daydu" class="animable"></path><path d="M235.22,434.22c-5-1-11-.27-14.86,3.23-.15.14,0,.35.21.3a69.23,69.23,0,0,1,14.62-2.9A.32.32,0,0,0,235.22,434.22Z" style="fill: rgb(255, 255, 255); transform-origin: 227.885px 435.783px 0px;" id="elrlgrvyn7hn" class="animable"></path><path d="M238.78,436.41c-5-1-11-.26-14.86,3.24-.15.13.05.34.21.29a69.23,69.23,0,0,1,14.62-2.9A.32.32,0,0,0,238.78,436.41Z" style="fill: rgb(255, 255, 255); transform-origin: 231.449px 437.974px 0px;" id="elcrbiza7fs9e" class="animable"></path></g></g><path d="M230.45,454.34a24.27,24.27,0,0,1,6.56-7.07c6-4,14.42-4.17,16-3.95s9,3.73,10.41,7.67,1.42,7.38.82,7.8-80.75-.07-81.87-.89-1.13-4-1.13-4Z" style="fill: rgb(0, 255, 136); transform-origin: 222.928px 451.101px 0px;" id="el4rwxflfzlm" class="animable"></path><g id="el64bofqh22et"><path d="M230.45,454.34a24.27,24.27,0,0,1,6.56-7.07c6-4,14.42-4.17,16-3.95s9,3.73,10.41,7.67,1.42,7.38.82,7.8-80.75-.07-81.87-.89-1.13-4-1.13-4Z" style="fill: rgb(255, 255, 255); opacity: 0.5; transform-origin: 222.928px 451.101px 0px;" class="animable"></path></g><ellipse cx="185.9" cy="435.79" rx="7.85" ry="10.32" style="fill: rgb(0, 255, 136); transform-origin: 185.9px 435.79px 0px;" id="ellxq255l3u8i" class="animable"></ellipse><g id="elue2iz00bemm"><ellipse cx="185.9" cy="435.79" rx="7.85" ry="10.32" style="fill: rgb(255, 255, 255); opacity: 0.5; transform-origin: 185.9px 435.79px 0px;" class="animable"></ellipse></g><g id="el5dsr3u6lqxf"><path d="M191.07,435.79c0,4.68-2.89,8.47-6.45,8.47s-6.44-3.79-6.44-8.47,2.88-8.47,6.44-8.47S191.07,431.11,191.07,435.79Z" style="fill: rgb(255, 255, 255); opacity: 0.5; transform-origin: 184.625px 435.79px 0px;" class="animable"></path></g><path d="M255.29,166.8s-1,21.85-6,39.16c-.4,1.43-.84,2.84-1.31,4.19a81.84,81.84,0,0,0-13.16,6.76s2,83.56,2.1,88.74c.36,15.39-2.73,68.89-3.46,97.3a24.68,24.68,0,0,1-3.18,12l-50.27.2A21.19,21.19,0,0,1,175.6,400c2.64-32.5,10.48-88.77,10.42-94.27-.1-11.42,1.83-80.29,3.74-97.67.27-2.48-1.49-13.64-.77-19.46a118.69,118.69,0,0,1,4.79-21.78Z" style="fill: rgb(0, 255, 136); transform-origin: 215.394px 290.975px 0px;" id="elvj1r4z6x1c" class="animable"></path><g id="elupzl25txful"><path d="M255.29,166.8s-1,21.85-6,39.16c-.4,1.43-.84,2.84-1.31,4.19a81.84,81.84,0,0,0-13.16,6.76s2,83.56,2.1,88.74c.36,15.39-2.73,68.89-3.46,97.3a24.68,24.68,0,0,1-3.18,12l-50.27.2A21.19,21.19,0,0,1,175.6,400c2.64-32.5,10.48-88.77,10.42-94.27-.1-11.42,1.83-80.29,3.74-97.67.27-2.48-1.49-13.64-.77-19.46a118.69,118.69,0,0,1,4.79-21.78Z" style="fill: rgb(255, 255, 255); opacity: 0.4; transform-origin: 215.394px 290.975px 0px;" class="animable"></path></g><g id="elzwa7w32343f"><path d="M228.38,405.33c-8.23-.13-5.87-.21-14.1-.25-4,0-30.5-.14-34.26.5-.08,0-.08.15,0,.16,3.76.61,30.23.27,34.26.21,8.23-.11,5.86-.17,14.09-.38A.12.12,0,0,0,228.38,405.33Z" style="opacity: 0.1; transform-origin: 204.228px 405.583px 0px;" class="animable"></path></g><path d="M247,210.7a96.08,96.08,0,0,0-15.22,7.09.17.17,0,0,0,.14.31c5.13-2.2,10.36-4.31,15.36-6.79A.34.34,0,0,0,247,210.7Z" style="fill: rgb(38, 50, 56); transform-origin: 239.555px 214.401px 0px;" id="el4kiqdntg0kl" class="animable"></path><path d="M248.67,175.51c0-.18-.32-.22-.32,0,0,6.09-.35,11.45-.86,17.14-.24,2.64-2.37,17.24-7,16.18-.76-.18-1.15-.94-1.28-2.09a18.59,18.59,0,0,1,.61-4.48c.51-3.06.92-6.12,1.18-9.21a83.77,83.77,0,0,0-.18-17.27.15.15,0,0,0-.3,0,158.37,158.37,0,0,1-1.39,23.84c-.58,3.79-2.49,9.51,1.48,10.1s6.66-9,7.16-11.6A87.73,87.73,0,0,0,248.67,175.51Z" style="fill: rgb(38, 50, 56); transform-origin: 243.591px 192.553px 0px;" id="elrpbjz9od9ps" class="animable"></path><path d="M240.67,209.19a25,25,0,0,0-1,3,6.9,6.9,0,0,0-.42,2.49c0,.16.23.18.31.07a8.63,8.63,0,0,0,1.07-2.42c.35-.94.72-1.87,1-2.81A.51.51,0,0,0,240.67,209.19Z" style="fill: rgb(38, 50, 56); transform-origin: 240.446px 211.856px 0px;" id="el6cy4re3tsn" class="animable"></path><g id="elcz25sfvtu5"><path d="M199.49,169.37c-1.46,6.14-2.88,12.29-4,18.49-.36,2.32-1,4.63-.61,7l.26,2.35c.32,3.16.57,6.31.8,9.47l-1,52.74c-.94,48.07-5,80.05-9.58,127.94a82.8,82.8,0,0,0-.56,13.17,82.88,82.88,0,0,1,.36-13.18c.62-8.11,2.57-31,3.29-39.45,4.14-35.2,5.54-104.68,7-141.24,0,.11-.72-9.41-.72-9.4l-.22-2.36c-.35-2.35.33-4.77.72-7.08,1.25-6.19,2.77-12.32,4.32-18.43Z" style="opacity: 0.1; transform-origin: 192.118px 284.95px 0px;" class="animable"></path></g><polygon points="185.08 305.95 185.08 299.59 237.48 296.41 237.48 307.15 185.08 305.95" style="fill: rgb(0, 255, 136); transform-origin: 211.28px 301.78px 0px;" id="elos14bsfo1j" class="animable"></polygon><path d="M210.07,286.83c1.46-9.34,23.15-10.45,26.73-3.39,4.75,9.37,4.23,33.87-2.17,39.64-4.36,3.93-22.76,3.69-24.83-2.71-1.47-4.55-1.53-7.71-1-17.84A135.52,135.52,0,0,1,210.07,286.83Z" style="fill: rgb(0, 255, 136); transform-origin: 224.226px 302.274px 0px;" id="elpjz98woh20e" class="animable"></path><g id="elzxxvtemh1ah"><path d="M210.07,286.83c1.46-9.34,23.15-10.45,26.73-3.39,4.75,9.37,4.23,33.87-2.17,39.64-4.36,3.93-22.76,3.69-24.83-2.71-1.47-4.55-1.53-7.71-1-17.84A135.52,135.52,0,0,1,210.07,286.83Z" style="fill: rgb(255, 255, 255); opacity: 0.7; transform-origin: 224.226px 302.274px 0px;" class="animable"></path></g><g id="eluoj16x3yhka"><g style="opacity: 0.7; transform-origin: 224.825px 302.159px 0px;" class="animable"><path d="M212.59,321.16a56.76,56.76,0,0,0,21.81,0,29.61,29.61,0,0,1-21.81,0Z" style="fill: rgb(0, 255, 136); transform-origin: 223.495px 322.201px 0px;" id="el8d7u9z8dnc3" class="animable"></path><path d="M211.16,317.2c8.2,1,16.49,1.4,24.67,0-7.88,2.78-16.74,2.35-24.67,0Z" style="fill: rgb(0, 255, 136); transform-origin: 223.495px 318.164px 0px;" id="el8hkzpu9cd2" class="animable"></path><path d="M211.16,312.83c7.54.92,15.19,1.43,22.74.47,1.1-.08,2.15-.34,3.24-.47-8.31,2.88-17.61,2.43-26,0Z" style="fill: rgb(0, 255, 136); transform-origin: 224.14px 313.827px 0px;" id="eldznqicuaey" class="animable"></path><path d="M211.16,307.55c7.75,1,15.63,1.68,23.42.74,1.12-.08,2.21-.34,3.33-.48-8.57,2.93-18.15,2.27-26.75-.26Z" style="fill: rgb(0, 255, 136); transform-origin: 224.535px 308.646px 0px;" id="elgu3qdv6fnfh" class="animable"></path><path d="M234.73,283.15a52.18,52.18,0,0,0-20.83,0,27.19,27.19,0,0,1,20.83,0Z" style="fill: rgb(0, 255, 136); transform-origin: 224.315px 282.113px 0px;" id="ellk39p3sz2eb" class="animable"></path><path d="M237.14,287.12c-8.2-1-16.48-1.4-24.66,0,7.87-2.78,16.74-2.35,24.66,0Z" style="fill: rgb(0, 255, 136); transform-origin: 224.81px 286.156px 0px;" id="el971sspnjt4m" class="animable"></path><path d="M237.14,291.49c-7.53-.92-15.18-1.43-22.73-.47-1.1.08-2.15.34-3.25.47,8.32-2.88,17.62-2.43,26,0Z" style="fill: rgb(0, 255, 136); transform-origin: 224.16px 290.493px 0px;" id="elukhsu24yg6c" class="animable"></path><path d="M238.13,296.23c-8.94-1-18.06-1.58-27,0,8.65-2.94,18.26-2.37,27,0Z" style="fill: rgb(0, 255, 136); transform-origin: 224.63px 295.232px 0px;" id="el2d6phvbo38z" class="animable"></path><path d="M238.13,300.24c-8.94-1-18.06-1.58-27,0,8.65-2.94,18.26-2.37,27,0Z" style="fill: rgb(0, 255, 136); transform-origin: 224.63px 299.242px 0px;" id="elaatjv7s7tkh" class="animable"></path><path d="M211.16,303.22c8.87.41,18.52,1,27.36.66-9,1.69-18.4,1.11-27.36-.66Z" style="fill: rgb(0, 255, 136); transform-origin: 224.84px 304.054px 0px;" id="elwaih2qj312n" class="animable"></path></g></g><path d="M235.12,231.49v.23a175.7,175.7,0,0,1-23.1,2.56c-7.94-.21-16-.06-23.85-1.32a1.34,1.34,0,0,1,0-.2c7.9.64,15.9.42,23.83.53,6.27,0,13.27-1,19.57-1.49Z" style="fill: rgb(0, 255, 136); transform-origin: 211.643px 232.885px 0px;" id="elolebfnqjree" class="animable"></path><path d="M235.21,235.07A175.37,175.37,0,0,1,212,237.64c-8-.2-16.1-.06-24-1.34a1.08,1.08,0,0,1,0-.18c8,.65,16,.43,24,.54,6.27,0,13.27-1,19.57-1.5l3.62-.31A1.77,1.77,0,0,0,235.21,235.07Z" style="fill: rgb(0, 255, 136); transform-origin: 211.603px 236.245px 0px;" id="elt0spqgs5ow" class="animable"></path><path d="M235.29,238.42A178.5,178.5,0,0,1,212,241c-8-.21-16.2-.06-24.14-1.37a1.09,1.09,0,0,1,0-.18c8,.68,16.09.45,24.12.56,6.27,0,13.27-1,19.57-1.5l3.7-.31A1.48,1.48,0,0,0,235.29,238.42Z" style="fill: rgb(0, 255, 136); transform-origin: 211.573px 239.6px 0px;" id="el8vqildx0he6" class="animable"></path><path d="M264.94,178.93H190.19v0a12.42,12.42,0,0,1-.92-8.77c3.91-17.22,9.86-54.21,23.92-68.44,7.63-7.73,28-4.54,31.59-.89,11.28,11.53,20.67,63.52,22.13,70C267.5,173.37,264.94,178.93,264.94,178.93Z" style="fill: rgb(0, 255, 136); transform-origin: 227.928px 137.948px 0px;" id="elb2uidmls24" class="animable"></path><g id="elfm8v355gx"><g style="opacity: 0.4; transform-origin: 227.928px 137.948px 0px;" class="animable"><path d="M264.94,178.93H190.19v0a12.42,12.42,0,0,1-.92-8.77c3.91-17.22,9.86-54.21,23.92-68.44,7.63-7.73,28-4.54,31.59-.89,11.28,11.53,20.67,63.52,22.13,70C267.5,173.37,264.94,178.93,264.94,178.93Z" style="fill: rgb(255, 255, 255); transform-origin: 227.928px 137.948px 0px;" id="elvxdz75a26qa" class="animable"></path></g></g><polygon points="227.24 134.1 252.38 134.13 249.1 116.05 223.96 116.01 227.24 134.1" style="fill: rgb(0, 255, 136); transform-origin: 238.17px 125.07px 0px;" id="elmp040avz0qg" class="animable"></polygon><g id="ela3rz8zo4k3c"><polygon points="227.24 134.1 252.38 134.13 249.1 116.05 223.96 116.01 227.24 134.1" style="fill: rgb(255, 255, 255); opacity: 0.2; transform-origin: 238.17px 125.07px 0px;" class="animable"></polygon></g><g id="elpuushzq9n5"><polygon points="227.24 134.1 229.92 134.11 226.65 116.02 223.96 116.01 227.24 134.1" style="fill: rgb(255, 255, 255); opacity: 0.4; transform-origin: 226.94px 125.06px 0px;" class="animable"></polygon></g><g id="elceb22m6uak"><polygon points="232.55 132.03 231.9 132.03 229.36 118.08 230.02 118.08 232.55 132.03" style="opacity: 0.1; transform-origin: 230.955px 125.055px 0px;" class="animable"></polygon></g><g id="elvgfv9saljh"><polygon points="234.14 132.03 233.49 132.03 230.96 118.08 231.61 118.08 234.14 132.03" style="opacity: 0.1; transform-origin: 232.55px 125.055px 0px;" class="animable"></polygon></g><g id="elyz1nf6b3g3h"><polygon points="235.74 132.03 235.08 132.03 232.55 118.08 233.21 118.08 235.74 132.03" style="opacity: 0.1; transform-origin: 234.145px 125.055px 0px;" class="animable"></polygon></g><g id="elcolhm0nre85"><path d="M246.24,121.13a1.4,1.4,0,0,0,1.29,1.17.91.91,0,0,0,.87-1.16,1.4,1.4,0,0,0-1.29-1.17A.91.91,0,0,0,246.24,121.13Z" style="opacity: 0.1; transform-origin: 247.32px 121.135px 0px;" class="animable"></path></g><g id="elg6zsox565ov"><path d="M246.93,125a1.43,1.43,0,0,0,1.29,1.17.92.92,0,0,0,.88-1.16,1.42,1.42,0,0,0-1.3-1.17A.9.9,0,0,0,246.93,125Z" style="opacity: 0.1; transform-origin: 248.012px 125.005px 0px;" class="animable"></path></g><g id="el1mz9yf349zk"><path d="M247.62,128.79a1.44,1.44,0,0,0,1.3,1.17.91.91,0,0,0,.87-1.17,1.43,1.43,0,0,0-1.3-1.17A.92.92,0,0,0,247.62,128.79Z" style="opacity: 0.1; transform-origin: 248.707px 128.79px 0px;" class="animable"></path></g><g id="elnjbfyts14vq"><path d="M242.86,121.12a1.42,1.42,0,0,0,1.3,1.17.91.91,0,0,0,.87-1.16,1.42,1.42,0,0,0-1.3-1.17A.91.91,0,0,0,242.86,121.12Z" style="opacity: 0.1; transform-origin: 243.945px 121.125px 0px;" class="animable"></path></g><g id="elbxh5vxe73xm"><path d="M243.55,125a1.43,1.43,0,0,0,1.3,1.17.91.91,0,0,0,.87-1.17,1.42,1.42,0,0,0-1.29-1.17A.92.92,0,0,0,243.55,125Z" style="opacity: 0.1; transform-origin: 244.637px 125px 0px;" class="animable"></path></g><g id="elpqd8sf94syr"><path d="M244.25,128.77a1.42,1.42,0,0,0,1.29,1.18.92.92,0,0,0,.88-1.17,1.43,1.43,0,0,0-1.3-1.17A.91.91,0,0,0,244.25,128.77Z" style="opacity: 0.1; transform-origin: 245.335px 128.78px 0px;" class="animable"></path></g><g id="elupjvg5g1bv"><path d="M239.49,121.12a1.4,1.4,0,0,0,1.29,1.17.91.91,0,0,0,.87-1.16,1.4,1.4,0,0,0-1.29-1.17A.91.91,0,0,0,239.49,121.12Z" style="opacity: 0.1; transform-origin: 240.57px 121.125px 0px;" class="animable"></path></g><g id="eli19nz8jr8hi"><path d="M240.18,125a1.43,1.43,0,0,0,1.29,1.17.92.92,0,0,0,.88-1.17,1.44,1.44,0,0,0-1.3-1.17A.91.91,0,0,0,240.18,125Z" style="opacity: 0.1; transform-origin: 241.263px 125px 0px;" class="animable"></path></g><g id="elhoa2ia2cben"><path d="M240.87,128.77a1.44,1.44,0,0,0,1.3,1.18.91.91,0,0,0,.87-1.17,1.43,1.43,0,0,0-1.29-1.17A.92.92,0,0,0,240.87,128.77Z" style="opacity: 0.1; transform-origin: 241.958px 128.78px 0px;" class="animable"></path></g><g id="eldfb383n0vh"><path d="M236.11,121.12a1.42,1.42,0,0,0,1.3,1.17.91.91,0,0,0,.87-1.16A1.42,1.42,0,0,0,237,120,.91.91,0,0,0,236.11,121.12Z" style="opacity: 0.1; transform-origin: 237.2px 121.145px 0px;" class="animable"></path></g><g id="el6mffhguqb04"><path d="M236.8,125a1.43,1.43,0,0,0,1.3,1.17A.91.91,0,0,0,239,125a1.42,1.42,0,0,0-1.29-1.17A.92.92,0,0,0,236.8,125Z" style="opacity: 0.1; transform-origin: 237.902px 125px 0px;" class="animable"></path></g><g id="el8bd09vhi73p"><path d="M237.5,128.77a1.42,1.42,0,0,0,1.29,1.18.92.92,0,0,0,.88-1.17,1.43,1.43,0,0,0-1.3-1.17A.91.91,0,0,0,237.5,128.77Z" style="opacity: 0.1; transform-origin: 238.585px 128.78px 0px;" class="animable"></path></g><g id="elevyw457t9fe"><ellipse cx="227.3" cy="149.81" rx="4.06" ry="4.28" style="fill: rgb(0, 255, 136); transform-origin: 227.3px 149.81px 0px; transform: rotate(-1.39deg);" class="animable"></ellipse></g><g id="elrahi2n6s0t9"><path d="M230.08,149.74a2.79,2.79,0,1,1-2.85-2.87A2.86,2.86,0,0,1,230.08,149.74Z" style="opacity: 0.1; transform-origin: 227.291px 149.66px 0px;" class="animable"></path></g><path d="M231.32,163.53a4.06,4.06,0,1,1-4.16-4.18A4.17,4.17,0,0,1,231.32,163.53Z" style="fill: rgb(0, 255, 136); transform-origin: 227.261px 163.409px 0px;" id="elzh1syw619e" class="animable"></path><g id="eli8cdpuv50p"><path d="M230.05,163.56a2.79,2.79,0,1,1-2.85-2.87A2.86,2.86,0,0,1,230.05,163.56Z" style="opacity: 0.1; transform-origin: 227.261px 163.48px 0px;" class="animable"></path></g><g id="el4697vg36ktg"><ellipse cx="254.68" cy="149.02" rx="3.67" ry="4.28" style="fill: rgb(0, 255, 136); transform-origin: 254.68px 149.02px 0px; transform: rotate(-7.14deg);" class="animable"></ellipse></g><g id="el8ty6sn8v75s"><path d="M257.17,148.71a2.55,2.55,0,1,1-2.86-2.6A2.75,2.75,0,0,1,257.17,148.71Z" style="opacity: 0.1; transform-origin: 254.62px 148.649px 0px;" class="animable"></path></g><path d="M259.7,162.32c.3,2.35-1.1,4.45-3.11,4.7s-3.87-1.44-4.17-3.79,1.1-4.45,3.11-4.71S259.41,160,259.7,162.32Z" style="fill: rgb(0, 255, 136); transform-origin: 256.06px 162.769px 0px;" id="elf6wcg0xt3dr" class="animable"></path><g id="eldm7i3m4lrmk"><path d="M258.56,162.46a2.55,2.55,0,1,1-2.86-2.6A2.75,2.75,0,0,1,258.56,162.46Z" style="opacity: 0.1; transform-origin: 256.01px 162.399px 0px;" class="animable"></path></g><path d="M203.47,160.41a15.07,15.07,0,0,1-9.1-2.68c-5.48-4-5.06-11.64-5-12a2,2,0,0,1,3.95.25s-.29,5.79,3.43,8.52c6.46,4.73,19.5-.21,29.55-6.41a2,2,0,0,1,2.08,3.36C223.26,154.63,212.65,160.41,203.47,160.41Z" style="fill: rgb(219, 219, 219); transform-origin: 209.208px 152.281px 0px;" id="el2gbo7wpyyfj" class="animable"></path><path d="M264.9,155.3a4.24,4.24,0,0,1-1.11.42,5.24,5.24,0,0,1-1.39.17c-3.26,0-7.34-2.39-9.32-5.88a2,2,0,1,1,3.43-2,8.26,8.26,0,0,0,5.33,3.84,2.09,2.09,0,0,0,1.1,0l.06,0c.08-.13.19-1-.72-2.86h0c-.16-.72-.74-3.15-.91-3.88.14-.49,2.34.32,3.23,1.83C267.73,152.2,266.14,154.6,264.9,155.3Z" style="fill: rgb(219, 219, 219); transform-origin: 259.548px 150.429px 0px;" id="elxocefdlnh2a" class="animable"></path><path d="M267,168.71a4,4,0,0,1-.47.21,6.42,6.42,0,0,1-2.39.42,12.16,12.16,0,0,1-9.8-5.66,2,2,0,0,1,3.44-2c1.62,2.84,5.88,4.27,7.42,3.47a.85.85,0,0,0,.43-.67s0,0,0,0a5.49,5.49,0,0,0-.53-2.57l-.68-3.23c.12-.59,2.17.52,3,2.21C269.73,165.54,268.36,168,267,168.71Z" style="fill: rgb(219, 219, 219); transform-origin: 261.412px 163.93px 0px;" id="elatflf3nr7a" class="animable"></path><path d="M203.4,174.5a20,20,0,0,1-10.76-2.88c-5.78-3.59-5.83-10.32-5.83-10.6a2,2,0,0,1,4,0c0,.19.08,4.83,4,7.25,10.39,6.47,25.45-2.49,31.45-6.64a2,2,0,0,1,2.25,3.25C217.79,172.25,209.52,174.5,203.4,174.5Z" style="fill: rgb(219, 219, 219); transform-origin: 207.972px 166.762px 0px;" id="els9bsxzn67vi" class="animable"></path><polygon points="266.67 184.47 188.79 184.47 189.62 178.92 265.59 178.92 266.67 184.47" style="fill: rgb(38, 50, 56); transform-origin: 227.73px 181.695px 0px;" id="el3vi8h0e4u3i" class="animable"></polygon><rect x="235.8" y="177.24" width="16.19" height="8.91" style="fill: rgb(166, 166, 166); transform-origin: 243.895px 181.695px 0px;" id="elw7jm8z3nij9" class="animable"></rect><polygon points="245.43 177.23 236.51 186.15 235.8 186.15 235.8 182.34 240.91 177.23 245.43 177.23" style="fill: rgb(219, 219, 219); transform-origin: 240.615px 181.69px 0px;" id="el1eiiznxhe5v" class="animable"></polygon><polygon points="251.99 184.42 251.99 186.15 250.25 186.15 251.99 184.42" style="fill: rgb(219, 219, 219); transform-origin: 251.12px 185.285px 0px;" id="elnln19it89rl" class="animable"></polygon><polygon points="248.72 177.23 239.81 186.15 237.55 186.15 246.46 177.23 248.72 177.23" style="fill: rgb(219, 219, 219); transform-origin: 243.135px 181.69px 0px;" id="elumo7v2vxnq9" class="animable"></polygon><polygon points="251.99 179.09 251.99 179.66 245.5 186.15 244.92 186.15 251.99 179.09" style="fill: rgb(219, 219, 219); transform-origin: 248.455px 182.62px 0px;" id="elv82a4k0rir8" class="animable"></polygon><polygon points="238.35 177.23 235.8 179.78 235.8 179.22 237.79 177.23 238.35 177.23" style="fill: rgb(219, 219, 219); transform-origin: 237.075px 178.505px 0px;" id="el8c1pix0kgah" class="animable"></polygon><path d="M206.2,110c-6.33,13.88-13.93,26.5-21.16,45.83-8.07,21.57-9.4,44.33-10.15,46.69-1.93,6.07,29.05,7.57,29.88,3.28.53-2.75,1.78-24.34,4.18-42.51,2.55-19.35,8.92-37.84,10.56-52.61C221.21,95.37,210.87,99.73,206.2,110Z" style="fill: rgb(211, 118, 106); transform-origin: 197.25px 154.474px 0px;" id="elmv4pc51xio" class="animable"></path><path d="M197.17,220.43c1-1.62,1.82-1.12,2.25,2.2s-.68,16.83,4.06,16.82,6.05-19.09,4.91-24.57S203.48,201,203.48,201C202.48,204.61,199.22,213.27,197.17,220.43Z" style="fill: rgb(55, 71, 79); transform-origin: 202.973px 220.225px 0px;" id="el7o65xb9s1t7" class="animable"></path><path d="M175.86,196.61c-2.43,10.42-6.09,23.24-2.49,34.77a6,6,0,0,0,2.25,3.2c1.52,5.2,4.43,6,4.43,6,2.9,4.4,6,4.85,6,4.85s1.85,6.08,5.71,5.57c4.33-.56.88-9,1.82-14.78,2.15-13.27,8.91-31.55,9.91-35.31Z" style="fill: rgb(55, 71, 79); transform-origin: 187.675px 223.82px 0px;" id="elapohmhb00t5" class="animable"></path><path d="M186,220.77a87,87,0,0,0-1.22,11.73,86.5,86.5,0,0,0,1.31,12.85.11.11,0,0,1-.21.05,45.89,45.89,0,0,1-.06-24.66C185.92,220.56,186.07,220.57,186,220.77Z" style="fill: rgb(38, 50, 56); transform-origin: 185.126px 233.038px 0px;" id="el197vve3ah1v" class="animable"></path><path d="M178.22,218.31c-.33,3.84-.86,10.6,1.95,22.28a0,0,0,0,1-.07,0A41,41,0,0,1,178,218.29C178.08,218.05,178.24,218.05,178.22,218.31Z" style="fill: rgb(38, 50, 56); transform-origin: 178.744px 229.351px 0px;" id="eljmjpurpjl1" class="animable"></path><path d="M174,217.06c-.31,6.56.33,10.73,1.65,17.49,0,0-.06.06-.07,0-2.31-7.52-2.3-10.51-1.81-17.55C173.78,216.78,174,216.81,174,217.06Z" style="fill: rgb(38, 50, 56); transform-origin: 174.579px 225.714px 0px;" id="elm6brzkgaunb" class="animable"></path><path d="M173.73,198.61l31.47,6s4.28-5.3,4.52-9c.75-11.61,1.78-34.16,2.42-38.83,1.64-12,8.42-39.09,8-49.56s-7.63-8.67-13.58,1c-7.69,12.57-18.7,33.25-22.93,45-1.74,4.85-8.42,23.59-11.24,34.63C171.27,192.1,173.73,198.61,173.73,198.61Z" style="fill: rgb(0, 255, 136); transform-origin: 196.128px 152.371px 0px;" id="elgsdrgdi2jc" class="animable"></path><g id="elljkcwg9qtek"><path d="M173.73,198.61l31.47,6s4.28-5.3,4.52-9c.75-11.61,1.78-34.16,2.42-38.83,1.64-12,8.42-39.09,8-49.56s-7.63-8.67-13.58,1c-7.69,12.57-18.7,33.25-22.93,45-1.74,4.85-8.42,23.59-11.24,34.63C171.27,192.1,173.73,198.61,173.73,198.61Z" style="fill: rgb(255, 255, 255); opacity: 0.4; transform-origin: 196.128px 152.371px 0px;" class="animable"></path></g><g id="el6z3w7rue3rj"><path d="M190.91,194.52c-2.42-.44-4.82-.93-7.23-1.43-1.16-.23-2.32-.46-3.46-.74s-2.53-.5-3.74-.88a.07.07,0,0,1,0-.13c1.27.07,2.55.34,3.81.5s2.33.35,3.49.54c2.43.39,4.85.78,7.27,1.23,4.84.9,9.64,1.93,14.43,3a.09.09,0,0,1,0,.18C200.6,196.14,195.75,195.4,190.91,194.52Z" style="opacity: 0.1; transform-origin: 191.003px 194.065px 0px;" class="animable"></path></g><polygon points="213.36 157.15 212.43 160.94 184.08 156.94 185.65 150.53 213.36 157.15" style="fill: rgb(0, 255, 136); transform-origin: 198.72px 155.735px 0px;" id="elskb1j9b6jcs" class="animable"></polygon><path d="M199.27,166.79c-3.25,4.82-16.59,2.76-18.17-2-2.11-6.26,1.1-21,6.08-23.61,3.39-1.81,15.25.84,16.38,4.86.69,2.4.86,5-.67,11.06C202.28,159.52,201.45,163.57,199.27,166.79Z" style="fill: rgb(0, 255, 136); transform-origin: 192.255px 155.07px 0px;" id="elf6tqdorzfl" class="animable"></path><g id="ela8nt8toi764"><path d="M199.27,166.79c-3.25,4.82-16.59,2.76-18.17-2-2.11-6.26,1.1-21,6.08-23.61,3.39-1.81,15.25.84,16.38,4.86.69,2.4.86,5-.67,11.06C202.28,159.52,201.45,163.57,199.27,166.79Z" style="fill: rgb(255, 255, 255); opacity: 0.7; transform-origin: 192.255px 155.07px 0px;" class="animable"></path></g><g id="elr458kqvwc2q"><g style="opacity: 0.7; transform-origin: 191.785px 155.207px 0px;" class="animable"><path d="M201.78,145.24a61.73,61.73,0,0,0-14.67-2.84,19.68,19.68,0,0,1,14.67,2.84Z" style="fill: rgb(0, 255, 136); transform-origin: 194.445px 143.627px 0px;" id="el5yoqr1kzjtc" class="animable"></path><path d="M202.28,147.82a100.14,100.14,0,0,0-16.6-3.21,26.51,26.51,0,0,1,16.6,3.21Z" style="fill: rgb(0, 255, 136); transform-origin: 193.98px 146.097px 0px;" id="eltqvekis9zpk" class="animable"></path><path d="M201.77,150.45a99.58,99.58,0,0,0-17.48-3.38,28.5,28.5,0,0,1,17.48,3.38Z" style="fill: rgb(0, 255, 136); transform-origin: 193.03px 148.646px 0px;" id="elcvpzxp5jluf" class="animable"></path><path d="M201.15,153.63c-6-1.61-11.81-3.15-18-3.64,6.14-.92,12.55.74,18,3.64Z" style="fill: rgb(0, 255, 136); transform-origin: 192.15px 151.683px 0px;" id="elrq4did2zaps" class="animable"></path><path d="M182.46,165.27a56.86,56.86,0,0,0,14,2.71,18,18,0,0,1-14-2.71Z" style="fill: rgb(0, 255, 136); transform-origin: 189.46px 166.834px 0px;" id="elwjtttyzlydf" class="animable"></path><path d="M181.29,162.57a101.35,101.35,0,0,0,16.6,3.2,26.58,26.58,0,0,1-16.6-3.2Z" style="fill: rgb(0, 255, 136); transform-origin: 189.59px 164.288px 0px;" id="elr6dmuk7hw3f" class="animable"></path><path d="M181.8,159.93a98.67,98.67,0,0,0,17.48,3.38,28.51,28.51,0,0,1-17.48-3.38Z" style="fill: rgb(0, 255, 136); transform-origin: 190.54px 161.734px 0px;" id="elnv14r4by07e" class="animable"></path><path d="M181.69,156.94c6,1.53,11.94,3,18.14,3.51-6.18.92-12.63-.69-18.14-3.51Z" style="fill: rgb(0, 255, 136); transform-origin: 190.76px 158.825px 0px;" id="el10clmttbyyaj" class="animable"></path><path d="M182.16,154.53c6,1.53,11.94,3,18.14,3.5-6.18.92-12.63-.68-18.14-3.5Z" style="fill: rgb(0, 255, 136); transform-origin: 191.23px 156.41px 0px;" id="el0is00n0wsf5" class="animable"></path><path d="M200.65,156.24c-6.19-1.18-12.16-2.69-18.33-4a44.44,44.44,0,0,1,18.33,4Z" style="fill: rgb(0, 255, 136); transform-origin: 191.485px 154.24px 0px;" id="elhaomqa3qeto" class="animable"></path></g></g><path d="M205.2,204.59c2.17-2.7,4.23-5.9,4.3-9.45l.52-10.66c.36-7.11.81-14.21,1.27-21.31.13-1.75.48-6.29.66-8,1.15-7.22,3.18-16.35,4.59-23.6.74-3.48,1.44-7,2.21-10.44-.54,3.51-1.15,7-1.73,10.53-1.2,7.29-3,16.4-4.14,23.61-.16,1.66-.48,6.23-.6,8l-1.5,21.29L210,195.17c-.24,3.64-2.42,6.81-4.79,9.42Z" style="fill: rgb(38, 50, 56); transform-origin: 211.975px 162.86px 0px;" id="elmakt49mft1" class="animable"></path><path d="M220.11,124.44a20,20,0,0,1-3.51,8.07,34.45,34.45,0,0,1,3.51-8.07Z" style="fill: rgb(38, 50, 56); transform-origin: 218.355px 128.475px 0px;" id="elyvx68uicajf" class="animable"></path><polygon points="208.81 123.76 199.7 121.19 202.09 115.8 211.2 118.37 208.81 123.76" style="fill: rgb(0, 255, 136); transform-origin: 205.45px 119.78px 0px;" id="el53e36gcssxb" class="animable"></polygon><g id="elb0qwqln6pn9"><polygon points="208.81 123.76 199.7 121.19 202.09 115.8 211.2 118.37 208.81 123.76" style="opacity: 0.1; transform-origin: 205.45px 119.78px 0px;" class="animable"></polygon></g><polygon points="207.81 123.47 198.7 120.9 201.09 115.51 210.2 118.08 207.81 123.47" style="fill: rgb(0, 255, 136); transform-origin: 204.45px 119.49px 0px;" id="elqwrb0c0a6s" class="animable"></polygon><path d="M237.94,104.79c-4,.71-10.48-3.33-12.88-8.35-.16-.34.54-3.83,1.2-8.12.39-2.6.76-5.5.91-8.18,0-.54,16.55,5,16.55,5a42.77,42.77,0,0,0-2.19,10.19,6.52,6.52,0,0,0,.06,1.1s0,.11,0,.18C241.83,98.72,241.79,104.09,237.94,104.79Z" style="fill: rgb(211, 118, 106); transform-origin: 234.378px 92.4871px 0px;" id="elfnlw8fu43se" class="animable"></path><path d="M243.72,85.14a43.69,43.69,0,0,0-2.17,9.78c-4.68-.68-12.39-3.06-14.79-10.29.18-1.5.33-3,.4-4.49C227.19,79.59,243.72,85.14,243.72,85.14Z" style="fill: rgb(38, 50, 56); transform-origin: 235.24px 87.5108px 0px;" id="elfsjcgah9pdk" class="animable"></path><path d="M223.31,61.07c-1.78,6,1.47,23.16,5.74,27,6.17,5.53,16.23,6,20.92-1.42,4.53-7.19-.1-29.52-4.86-33C238.11,48.55,225.94,52.25,223.31,61.07Z" style="fill: rgb(211, 118, 106); transform-origin: 237.316px 71.7786px 0px;" id="el0z6g3y5z326" class="animable"></path><path d="M238.66,72.27s-.08.07-.07.12c.2,1.16.25,2.52-.75,3.06,0,0,0,.08,0,.07C239.12,75.15,239,73.34,238.66,72.27Z" style="fill: rgb(38, 50, 56); transform-origin: 238.364px 73.8954px 0px;" id="eli9gsf0huw2e" class="animable"></path><path d="M237.44,71.21c-1.9.13-1.49,3.91.27,3.79S239,71.09,237.44,71.21Z" style="fill: rgb(38, 50, 56); transform-origin: 237.513px 73.105px 0px;" id="el1g0uwim7d45" class="animable"></path><path d="M245.51,71.29s.09,0,.1.1c.09,1.17.38,2.5,1.49,2.78,0,0,0,.07,0,.06C245.78,74.19,245.4,72.42,245.51,71.29Z" style="fill: rgb(38, 50, 56); transform-origin: 246.296px 72.7605px 0px;" id="elp2aoywwikm" class="animable"></path><path d="M246.42,70c1.87-.35,2.42,3.41.69,3.73S244.85,70.24,246.42,70Z" style="fill: rgb(38, 50, 56); transform-origin: 246.82px 71.8631px 0px;" id="elzg195ik6g7b" class="animable"></path><path d="M235.87,69.82a12.92,12.92,0,0,0,1.52-.36,2.47,2.47,0,0,0,1.48-.67.81.81,0,0,0,0-1,2,2,0,0,0-2-.41,2.93,2.93,0,0,0-1.81,1.09A.85.85,0,0,0,235.87,69.82Z" style="fill: rgb(38, 50, 56); transform-origin: 236.966px 68.5499px 0px;" id="el2g9msddpvpi" class="animable"></path><path d="M247.85,68a13.58,13.58,0,0,1-1.56.08,2.44,2.44,0,0,1-1.6-.22.79.79,0,0,1-.25-1,2,2,0,0,1,1.78-1,2.89,2.89,0,0,1,2,.52A.86.86,0,0,1,247.85,68Z" style="fill: rgb(38, 50, 56); transform-origin: 246.517px 66.9856px 0px;" id="elj4bnuf2uuvo" class="animable"></path><path d="M238.46,82.82c.31.24.63.59,1.06.58a3,3,0,0,0,1.23-.43,0,0,0,0,1,.06.06,1.59,1.59,0,0,1-1.42.79,1.25,1.25,0,0,1-1-.94C238.33,82.82,238.42,82.78,238.46,82.82Z" style="fill: rgb(38, 50, 56); transform-origin: 239.59px 83.3123px 0px;" id="elt9xs6y9s2h" class="animable"></path><path d="M239.32,79.18a4,4,0,0,0,2.85,1.49,5.06,5.06,0,0,0,1.45-.09,1.31,1.31,0,0,0,.27-.06l.25-.07a.29.29,0,0,0,.21-.29h0a.43.43,0,0,0,0-.12h0v-.1c-.08-.91-.31-2.27-.31-2.27.35.13,2.11.7,2,.24A60,60,0,0,0,243.19,66,.11.11,0,0,0,243,66c.48,3.75,1.61,7.39,2.15,11.15a7.26,7.26,0,0,0-1.94-.37c-.13.05.5,2.63.5,3v0a5.55,5.55,0,0,1-4.27-.84C239.32,79,239.24,79.09,239.32,79.18Z" style="fill: rgb(38, 50, 56); transform-origin: 242.666px 73.3162px 0px;" id="elr5opdknmbo" class="animable"></path><path d="M243,80.18a4.77,4.77,0,0,1-1.73,1.67,2.17,2.17,0,0,1-1.29.22c-1-.15-1.08-1-1-1.75a4.83,4.83,0,0,1,.3-1.17A6.15,6.15,0,0,0,243,80.18Z" style="fill: rgb(38, 50, 56); transform-origin: 240.978px 80.6202px 0px;" id="elt58qyra0mla" class="animable"></path><path d="M241.3,81.85a2.17,2.17,0,0,1-1.29.22c-1-.15-1.08-1-1-1.75A2.21,2.21,0,0,1,241.3,81.85Z" style="fill: rgb(255, 154, 187); transform-origin: 240.143px 81.2013px 0px;" id="elz9lyco7qgx" class="animable"></path><path d="M224,75.74c2.59.51,4.37-2.65,4.9-4.28s-1.28-9.23-.23-11.69,3.6-4,5.73-3.52,5,1.89,6.56,1.63,1.72-2.81,2.79-2.89c2.36-.18,5.15,4.54,5.77,7.1,0,0-.7-11-12.07-11.15-11.1-.15-14.08,7.69-14.79,11.09C221.26,68.53,224,75.74,224,75.74Z" style="fill: rgb(38, 50, 56); transform-origin: 235.891px 63.3665px 0px;" id="elqv18cxkgoxm" class="animable"></path><path d="M228.35,76.92s-4-5.47-6.53-4,.65,9.44,3.64,10.47a3,3,0,0,0,4-1.73Z" style="fill: rgb(211, 118, 106); transform-origin: 225.18px 78.1508px 0px;" id="el5j8gssay0es" class="animable"></path><path d="M222.78,75.18c-.05,0-.06.06,0,.08,2.1.78,3.25,2.68,4.07,4.66a1.67,1.67,0,0,0-2.5-.39c-.06,0,0,.12.06.11a1.85,1.85,0,0,1,2.05.59,8.58,8.58,0,0,1,1,1.63c.11.18.44.07.36-.14l0,0C227.79,79,225.63,75.37,222.78,75.18Z" style="fill: rgb(38, 50, 56); transform-origin: 225.286px 78.5653px 0px;" id="ele01btniala" class="animable"></path><path d="M224.23,96.43s0-6.68.23-7.09,9.55,6,10.42,6.34,2.63,7.24,2.63,7.24,1.15-6.46,1.48-6.69a35.23,35.23,0,0,1,3.41-2.47c.33,0-.47,6.85-.54,7.85s-.42,3.15-3.69,3.51A13.93,13.93,0,0,1,224.23,96.43Z" style="fill: rgb(0, 255, 136); transform-origin: 233.355px 97.2393px 0px;" id="elgsjym8ago4d" class="animable"></path><g id="eluxc4jw7v01s"><path d="M224.23,96.43s0-6.68.23-7.09,9.55,6,10.42,6.34,2.63,7.24,2.63,7.24,1.15-6.46,1.48-6.69a35.23,35.23,0,0,1,3.41-2.47c.33,0-.47,6.85-.54,7.85s-.42,3.15-3.69,3.51A13.93,13.93,0,0,1,224.23,96.43Z" style="opacity: 0.2; transform-origin: 233.355px 97.2393px 0px;" class="animable"></path></g><path d="M245.56,98.59l-.41,4.21c-.27,2.71-9.93,3.58-15,3.08s-14.34-3.24-14.07-5.94l.42-4.21c.1-1,1.37-3.47,14.86-2.14S245.66,97.57,245.56,98.59Z" style="fill: rgb(0, 255, 136); transform-origin: 230.821px 99.6099px 0px;" id="el07mv2tnypaqx" class="animable"></path><g id="elcnizx5byt7i"><path d="M245.56,98.59l-.41,4.21c-.27,2.71-9.93,3.58-15,3.08s-14.34-3.24-14.07-5.94l.42-4.21c.1-1,1.37-3.47,14.86-2.14S245.66,97.57,245.56,98.59Z" style="fill: rgb(255, 255, 255); opacity: 0.2; transform-origin: 230.821px 99.6099px 0px;" class="animable"></path></g><g id="el092mmhnsgw0f"><path d="M245.43,98.56c-.33,2.14-5.68,2.77-7.14,3a33.78,33.78,0,0,1-15.2-1.5,18.42,18.42,0,0,1-5.32-2.49,2.34,2.34,0,0,1-1.11-1.8c0,1.34,2,2.29,2.86,2.7a35.63,35.63,0,0,0,7.34,2.28,36.46,36.46,0,0,0,11.42.55c1.46-.16,6.79-.64,7.15-2.7Z" style="opacity: 0.2; transform-origin: 231.045px 98.8068px 0px;" class="animable"></path></g><g id="el858mavb4zdq"><path d="M242.47,102.74c0,.43-.31.76-.59.73s-.49-.4-.44-.83.3-.75.59-.72S242.51,102.32,242.47,102.74Z" style="opacity: 0.2; transform-origin: 241.954px 102.695px 0px;" class="animable"></path></g><path d="M242.25,102.72c0,.39-.25.69-.47.67s-.38-.36-.34-.75.25-.69.48-.67S242.29,102.33,242.25,102.72Z" style="fill: rgb(38, 50, 56); transform-origin: 241.845px 102.68px 0px;" id="elwf1357hu0t" class="animable"></path><g id="elhl2or31gie"><path d="M219.82,101.22a.71.71,0,0,1,.69-.71.7.7,0,0,1,.53.84.71.71,0,0,1-.69.71A.7.7,0,0,1,219.82,101.22Z" style="opacity: 0.2; transform-origin: 220.43px 101.285px 0px;" class="animable"></path></g><path d="M220.07,101.25c0-.39.29-.69.56-.66s.45.36.41.76-.28.68-.55.66S220,101.64,220.07,101.25Z" style="fill: rgb(38, 50, 56); transform-origin: 220.551px 101.299px 0px;" id="el9yfnlh4btiv" class="animable"></path><g id="elfszcloi7htv"><path d="M244.32,102.14c0,.43-.3.76-.59.73s-.48-.4-.44-.83.31-.75.59-.72S244.36,101.72,244.32,102.14Z" style="opacity: 0.2; transform-origin: 243.805px 102.095px 0px;" class="animable"></path></g><path d="M244.11,102.12c0,.4-.25.69-.48.67s-.38-.36-.34-.75.25-.69.48-.67S244.15,101.73,244.11,102.12Z" style="fill: rgb(38, 50, 56); transform-origin: 243.7px 102.08px 0px;" id="elz1erpa5srog" class="animable"></path><g id="el09y6h9q7z414"><path d="M219.33,100.06l-.13,1.36a9.17,9.17,0,0,1-3-2.09l.14-1.46A7.35,7.35,0,0,0,219.33,100.06Z" style="opacity: 0.2; transform-origin: 217.765px 99.645px 0px;" class="animable"></path></g><path d="M219.33,100.06l-.1,1.08a7.15,7.15,0,0,1-2.91-2l.11-1.12A7.39,7.39,0,0,0,219.33,100.06Z" style="fill: rgb(38, 50, 56); transform-origin: 217.825px 99.58px 0px;" id="elptqor47gugi" class="animable"></path><g id="elmzpxz9ch6wc"><path d="M220.11,102.36c.91.24,1.37-.67,1.13-1.71a1.46,1.46,0,0,1,.19.7,1.48,1.48,0,0,1,0,.3c-.14.78-.81,1.11-1.31.71Z" style="opacity: 0.2; transform-origin: 220.774px 101.59px 0px;" class="animable"></path></g><path d="M218,94.44a1.88,1.88,0,0,0-.71,1c-.12,1.07,1.82,1.91,2.46,2.23,1.38.65,2.82,1.14,4.22,1.7-1.72-.36-5.5-1.42-6.61-3.06-.53-.84,0-1.51.64-1.91Z" style="fill: rgb(255, 255, 255); transform-origin: 220.557px 96.885px 0px;" id="el1l0e2nse5kyi" class="animable"></path><path d="M262.94,75.63a5.12,5.12,0,0,1-.42,1.81,0,0,0,0,1,0,0c-.05.11-.11.21-.16.32a1.1,1.1,0,0,0-.09.14l-.05.06a2.56,2.56,0,0,1-1.1,1h0a1.39,1.39,0,0,1-.38.12l-.09,0h-.29A1.09,1.09,0,0,1,260,79c0-.09,0-.19,0-.28a16.74,16.74,0,0,0,.21-2.68A24,24,0,0,0,260,72.5a3,3,0,0,0-.06-.43,1.61,1.61,0,0,1,.72-.12,1.33,1.33,0,0,1,.28,0l.08,0a2.65,2.65,0,0,1,.44.17,0,0,0,0,1,0,0,2.62,2.62,0,0,1,.91.93.19.19,0,0,1,.05.1,2.6,2.6,0,0,1,.13.24,3.89,3.89,0,0,1,.16.41A4.78,4.78,0,0,1,262.94,75.63Z" style="fill: rgb(55, 71, 79); transform-origin: 261.446px 75.5113px 0px;" id="el18d6c2aoogj" class="animable"></path><path d="M262.87,75.62a5.1,5.1,0,0,1-.29,1.57h0a4.53,4.53,0,0,1-.2.49s0,0,0,0-.07.14-.1.21l-.05.06a2.07,2.07,0,0,1-1.1,1h0a1.15,1.15,0,0,1-.37.06h-.08a1.29,1.29,0,0,1-.63-.24,16.74,16.74,0,0,0,.21-2.68A24,24,0,0,0,260,72.5a1.48,1.48,0,0,1,1-.43H261a1.12,1.12,0,0,1,.41.1,0,0,0,0,1,0,0,2,2,0,0,1,.91.93.19.19,0,0,1,.05.1,1.69,1.69,0,0,1,.13.3,4.23,4.23,0,0,1,.19.57A5.85,5.85,0,0,1,262.87,75.62Z" style="fill: rgb(69, 90, 100); transform-origin: 261.436px 75.54px 0px;" id="elf4pskewxyoa" class="animable"></path><path d="M262.58,77.19h0a2.1,2.1,0,0,1-.06.24,0,0,0,0,1,0,0,7.05,7.05,0,0,1-.8,1.9,4.43,4.43,0,0,1-2,1.87l-.1,0-.06,0-.13,0s0,0,0,0A14.72,14.72,0,0,0,260,79c0-.09,0-.19,0-.28a16.74,16.74,0,0,0,.21-2.68A24,24,0,0,0,260,72.5a3,3,0,0,0-.06-.43,20.41,20.41,0,0,0-.52-2.41c0-.07,0-.12,0-.17a2,2,0,0,1,.66.21.09.09,0,0,1,.06,0,.17.17,0,0,1,.07,0l.07,0a4.37,4.37,0,0,1,1.8,2,1.11,1.11,0,0,1,.09.19,7.07,7.07,0,0,1,.6,1.92l0,.22a8.61,8.61,0,0,1,.07,1.54A8,8,0,0,1,262.58,77.19Z" style="fill: rgb(0, 255, 136); transform-origin: 261.134px 75.345px 0px;" id="elqpwqg101l7b" class="animable"></path><g id="el45t16gw5ia2"><path d="M262.58,77.19h0a2.1,2.1,0,0,1-.06.24,0,0,0,0,1,0,0,7.05,7.05,0,0,1-.8,1.9,4.43,4.43,0,0,1-2,1.87l-.1,0-.06,0-.13,0s0,0,0,0A14.72,14.72,0,0,0,260,79c0-.09,0-.19,0-.28a16.74,16.74,0,0,0,.21-2.68A24,24,0,0,0,260,72.5a3,3,0,0,0-.06-.43,20.41,20.41,0,0,0-.52-2.41c0-.07,0-.12,0-.17a2,2,0,0,1,.66.21.09.09,0,0,1,.06,0,.17.17,0,0,1,.07,0l.07,0a4.37,4.37,0,0,1,1.8,2,1.11,1.11,0,0,1,.09.19,7.07,7.07,0,0,1,.6,1.92l0,.22a8.61,8.61,0,0,1,.07,1.54A8,8,0,0,1,262.58,77.19Z" style="opacity: 0.1; transform-origin: 261.134px 75.345px 0px;" class="animable"></path></g><path d="M262.69,75.62a9.06,9.06,0,0,1-.31,2.07s0,0,0,0a.15.15,0,0,1,0,.07,7.56,7.56,0,0,1-.64,1.58,3.55,3.55,0,0,1-2,1.87.14.14,0,0,1-.09,0l-.05,0-.13,0A14.72,14.72,0,0,0,260,79c0-.09,0-.19,0-.28a16.74,16.74,0,0,0,.21-2.68A24,24,0,0,0,260,72.5a3,3,0,0,0-.06-.43,20.41,20.41,0,0,0-.52-2.41h.16a1.93,1.93,0,0,1,.47.08l0,0,.07,0,.07,0a3.47,3.47,0,0,1,1.8,2,1.11,1.11,0,0,1,.09.19,7.22,7.22,0,0,1,.44,1.51s0,0,0,.06A9,9,0,0,1,262.69,75.62Z" style="fill: rgb(0, 255, 136); transform-origin: 261.058px 75.4387px 0px;" id="elekbxhi6ribt" class="animable"></path><path d="M260.73,79s0,0,0,.06a10.18,10.18,0,0,1-.8,1.62,5.87,5.87,0,0,1-.39.58s0,0,0,0-.13.17-.2.26a.88.88,0,0,0,.07-.23s0,0,0,0A14.72,14.72,0,0,0,260,79c0-.09,0-.19,0-.28a16.74,16.74,0,0,0,.21-2.68A24,24,0,0,0,260,72.5a3,3,0,0,0-.06-.43,20.41,20.41,0,0,0-.52-2.41c0-.07,0-.12,0-.17-.1-.36-.22-.7-.34-1a5.66,5.66,0,0,1,1,1.25s0,0,0,0,.14.24.21.35a1.2,1.2,0,0,1,.11.23A8.34,8.34,0,0,1,261,72l0,.07a11.31,11.31,0,0,1,.37,3.49A10.85,10.85,0,0,1,260.73,79Z" style="fill: rgb(55, 71, 79); transform-origin: 260.232px 75.005px 0px;" id="el7nxhgesw8xr" class="animable"></path><path d="M260.65,79s0,.06,0,.09a10.18,10.18,0,0,1-.71,1.6,5.93,5.93,0,0,1-.34.56s0,0,0,0-.2.28-.3.4c0,0,0-.08,0-.12a.88.88,0,0,0,.07-.23s0,0,0,0A14.72,14.72,0,0,0,260,79c0-.09,0-.19,0-.28a16.74,16.74,0,0,0,.21-2.68A24,24,0,0,0,260,72.5a3,3,0,0,0-.06-.43,20.41,20.41,0,0,0-.52-2.41c0-.07,0-.12,0-.17-.1-.36-.22-.7-.34-1a1.15,1.15,0,0,0-.06-.17,5.81,5.81,0,0,1,1.12,1.45,0,0,0,0,1,0,0,3.41,3.41,0,0,1,.17.33,1.2,1.2,0,0,1,.11.23,9.92,9.92,0,0,1,.57,1.67l0,.09a13,13,0,0,1,.32,3.48A12.75,12.75,0,0,1,260.65,79Z" style="fill: rgb(69, 90, 100); transform-origin: 260.171px 74.985px 0px;" id="el59w4387nwyk" class="animable"></path><path d="M216.22,76.18c0,6.71,5.22,16.22,24,16.17,6.87,0,11.53-1.8,14.61-4.37a25.89,25.89,0,0,1-3.25,4.72c-3.23,3.71-10.73,6.62-17.45,6.34-7-.29-12.46-1.46-15.91-3.43-12-6.83-13-17.89-12.22-25.66,1.74-14.76,13.55-23.89,29.09-23.25a24.07,24.07,0,0,1,22.68,19.15,11.26,11.26,0,0,0-3.27-3.56,24.22,24.22,0,0,0-14.37-4.1c-5.7,0-13.77.69-18.28,4.18C218.55,64.92,216.2,69.47,216.22,76.18Z" style="fill: rgb(0, 255, 136); transform-origin: 231.785px 72.8635px 0px;" id="el3lpqz1po6yd" class="animable"></path><g id="elauex2uz7vh5"><path d="M216.22,76.18c0,6.71,5.22,16.22,24,16.17,6.87,0,11.53-1.8,14.61-4.37a25.89,25.89,0,0,1-3.25,4.72c-3.23,3.71-10.73,6.62-17.45,6.34-7-.29-12.46-1.46-15.91-3.43-12-6.83-13-17.89-12.22-25.66,1.74-14.76,13.55-23.89,29.09-23.25a24.07,24.07,0,0,1,22.68,19.15,11.26,11.26,0,0,0-3.27-3.56,24.22,24.22,0,0,0-14.37-4.1c-5.7,0-13.77.69-18.28,4.18C218.55,64.92,216.2,69.47,216.22,76.18Z" style="fill: rgb(255, 255, 255); opacity: 0.4; transform-origin: 231.785px 72.8635px 0px;" class="animable"></path></g><g id="el16404dm7efv"><g style="opacity: 0.5; transform-origin: 224.495px 56.825px 0px;" class="animable"><path d="M220.26,56.52a25.25,25.25,0,0,1,13.92-5,43.58,43.58,0,0,0-13.92,5Z" style="fill: rgb(255, 255, 255); transform-origin: 227.22px 54.02px 0px;" id="elqqr7tamqv0k" class="animable"></path><path d="M214.81,62.13a10.15,10.15,0,0,1,4.45-4.88c-.19.21-.39.4-.58.61a52.29,52.29,0,0,0-3.87,4.27Z" style="fill: rgb(255, 255, 255); transform-origin: 217.035px 59.69px 0px;" id="elsa56hvg79i" class="animable"></path></g></g><g id="elod74uc4067"><g style="opacity: 0.5; transform-origin: 222.735px 51.4351px 0px;" class="animable"><path d="M221.19,52.41c0,.26-.37.45-.79.43s-.76-.24-.75-.49.36-.44.79-.43S221.2,52.16,221.19,52.41Z" style="fill: rgb(255, 255, 255); transform-origin: 220.42px 52.3805px 0px;" id="el2dg2cz6nd6u" class="animable"></path><path d="M225.82,51.13c0,.65-.85,1.2-1.94,1.24s-2-.46-2-1.11.85-1.2,1.94-1.23S225.8,50.49,225.82,51.13Z" style="fill: rgb(255, 255, 255); transform-origin: 223.85px 51.2005px 0px;" id="elfj1nx2zu5g4" class="animable"></path></g></g><path d="M240.24,92.35c-18.8.05-24-9.46-24-16.17s2.33-11.26,5.65-13.81c4.51-3.49,12.58-4.17,18.28-4.18a24.22,24.22,0,0,1,14.37,4.1c2.4,1.64,4.21,4.42,5.11,8.22a20.22,20.22,0,0,0-2.14-8.1c-3.82-6.88-14.27-8.16-19.32-8.15s-18,1.32-21.75,8.23-2.8,20.72,1.47,25.13c3.84,4,10.73,6.16,20.35,6.07,6.58-.07,11.51-.9,16.15-5.07a10.84,10.84,0,0,0,1.17-1.26C252.5,90.25,247.64,92.33,240.24,92.35Z" style="fill: rgb(0, 255, 136); transform-origin: 236.875px 73.9763px 0px;" id="ely4qdlvcdgz" class="animable"></path><g id="elqlz57ibolbe"><g style="opacity: 0.5; transform-origin: 222.723px 59.9443px 0px;" class="animable"><path d="M221.64,60.88c0,.2-.21.4-.54.46s-.64-.05-.67-.25.21-.4.54-.46S221.6,60.69,221.64,60.88Z" style="fill: rgb(255, 255, 255); transform-origin: 221.034px 60.9854px 0px;" id="elksnbzbh5vy" class="animable"></path><path d="M225,59.13c.13.49-.45,1.06-1.3,1.27s-1.62,0-1.75-.52.46-1.06,1.3-1.27S224.91,58.63,225,59.13Z" style="fill: rgb(255, 255, 255); transform-origin: 223.475px 59.5065px 0px;" id="el968ic316hue" class="animable"></path></g></g><g id="el02oqo8dxwutl"><path d="M260.23,76.08c0,6.71-4.1,16.23-20,16.27-18.8,0-24-9.46-24-16.17s2.33-11.26,5.64-13.81c4.52-3.49,12.59-4.17,18.3-4.18a24.28,24.28,0,0,1,14.36,4.1C258,64.66,260.22,69.37,260.23,76.08Z" style="fill: rgb(38, 50, 56); opacity: 0.8; transform-origin: 238.23px 75.2628px 0px;" class="animable"></path></g><g id="elmxb9c74tv4"><g style="opacity: 0.5; transform-origin: 239.841px 75.3261px 0px;" class="animable"><path d="M234.12,92a27.68,27.68,0,0,1-9.64-2.9,20.22,20.22,0,0,1-3-7.6,35.19,35.19,0,0,1,2.08-20.17A23.14,23.14,0,0,1,230.43,59C226.53,67.3,225.4,82.87,234.12,92Z" style="fill: rgb(255, 255, 255); transform-origin: 227.485px 75.5px 0px;" id="el5f46mjtf3jh" class="animable"></path><path d="M230.52,79.63a24.09,24.09,0,0,0,.85,3.18,16.62,16.62,0,0,1-1.32-3.06c-2-7-.43-14.57,2.58-21.09a1.18,1.18,0,0,1,.27,0C230.85,65.41,229.2,72.6,230.52,79.63Z" style="fill: rgb(255, 255, 255); transform-origin: 231.028px 70.7311px 0px;" id="elar6fpg65q9" class="animable"></path><path d="M252.43,89.63a17.09,17.09,0,0,1-2.19,1c6-4.2,8.75-12,7.52-19.21-.08-1.15-.41-2.26-.58-3.41a26.35,26.35,0,0,1,1.06,3.33C260,77.91,257.77,85.55,252.43,89.63Z" style="fill: rgb(255, 255, 255); transform-origin: 254.536px 79.32px 0px;" id="el6k1dyaajvj9" class="animable"></path><path d="M256,77.82c.11-4.79-.34-9.82-2.43-14.2,3.21,3.23,4,10,2.43,14.2Z" style="fill: rgb(255, 255, 255); transform-origin: 255.176px 70.72px 0px;" id="elm2wz9fpo318" class="animable"></path></g></g><path d="M213.93,75.26c.21,4.53-2.13,8.32-5.23,8.46s-5.78-3.41-6-7.93,2.13-8.32,5.23-8.46S213.72,70.74,213.93,75.26Z" style="fill: rgb(55, 71, 79); transform-origin: 208.314px 75.525px 0px;" id="el2cazj1ix4t5" class="animable"></path><g id="els05vmw8s6q"><ellipse cx="207.46" cy="75.56" rx="4.61" ry="7.95" style="fill: rgb(69, 90, 100); transform-origin: 207.46px 75.56px 0px; transform: rotate(-2.66deg);" class="animable"></ellipse></g><g id="el8d8ngaahi4"><ellipse cx="205.43" cy="75.66" rx="4.12" ry="6.02" style="fill: rgb(0, 255, 136); transform-origin: 205.43px 75.66px 0px; transform: rotate(-2.66deg);" class="animable"></ellipse></g><g id="elklhr6jov9a"><ellipse cx="205.43" cy="75.66" rx="4.12" ry="6.02" style="opacity: 0.1; transform-origin: 205.43px 75.66px 0px; transform: rotate(-2.66deg);" class="animable"></ellipse></g><path d="M208.18,75.53c.15,3.22-1.24,5.9-3.1,6s-3.5-2.45-3.65-5.67,1.24-5.89,3.11-6S208,72.31,208.18,75.53Z" style="fill: rgb(0, 255, 136); transform-origin: 204.805px 75.6947px 0px;" id="eliigjwlcl9rn" class="animable"></path><path d="M206.08,75.63c.09,2-.93,3.63-2.28,3.69s-2.53-1.49-2.62-3.46.93-3.63,2.28-3.7S206,73.65,206.08,75.63Z" style="fill: rgb(55, 71, 79); transform-origin: 203.63px 75.7397px 0px;" id="elcz40lrbzstq" class="animable"></path><path d="M205.27,75.67c.09,1.91-.74,3.51-1.85,3.56s-2.09-1.46-2.18-3.38.74-3.51,1.85-3.56S205.18,73.75,205.27,75.67Z" style="fill: rgb(69, 90, 100); transform-origin: 203.255px 75.76px 0px;" id="elpf6p42kzmri" class="animable"></path></g><g id="freepik--Flag--inject-65" style="transform-origin: 358.24px 255.545px 0px;" class="animable"><polygon points="312.7 463.05 310.75 48.05 313.58 48.04 315.53 463.04 312.7 463.05" style="fill: rgb(38, 50, 56); transform-origin: 313.14px 255.545px 0px;" id="eleu1t0rg84uf" class="animable"></polygon><path d="M359.14,141.62l-.38-59.55a9.44,9.44,0,0,0,.51,3,10.79,10.79,0,0,0,1.61,3c5.25,7,20.17,11.69,44.48,14l.37,59.55c-24.31-2.3-39.22-7-44.48-14a10.75,10.75,0,0,1-1.6-3A9.44,9.44,0,0,1,359.14,141.62Z" style="fill: rgb(0, 255, 136); transform-origin: 382.245px 121.845px 0px;" id="elj02nlqdz03o" class="animable"></path><g id="elbf4gv0p1ie"><g style="opacity: 0.1; transform-origin: 382.245px 121.845px 0px;" class="animable"><path d="M359.14,141.62l-.38-59.55a9.44,9.44,0,0,0,.51,3,10.79,10.79,0,0,0,1.61,3c5.25,7,20.17,11.69,44.48,14l.37,59.55c-24.31-2.3-39.22-7-44.48-14a10.75,10.75,0,0,1-1.6-3A9.44,9.44,0,0,1,359.14,141.62Z" id="eleahpr8jzvi7" style="transform-origin: 382.245px 121.845px 0px;" class="animable"></path></g></g><path d="M360.33,133.15a19.65,19.65,0,0,1-.6,4.32,18.22,18.22,0,0,0-.59,4.15l-.38-59.55a19.41,19.41,0,0,1,.59-4.15A19.08,19.08,0,0,0,360,73.6C360.07,91.47,360.22,115.29,360.33,133.15Z" style="fill: rgb(0, 255, 136); transform-origin: 359.545px 107.61px 0px;" id="elrz0kilbitld" class="animable"></path><g id="elbvfbr5690av"><g style="opacity: 0.4; transform-origin: 359.545px 107.61px 0px;" class="animable"><path d="M360.33,133.15a19.65,19.65,0,0,1-.6,4.32,18.22,18.22,0,0,0-.59,4.15l-.38-59.55a19.41,19.41,0,0,1,.59-4.15A19.08,19.08,0,0,0,360,73.6C360.07,91.47,360.22,115.29,360.33,133.15Z" id="el80qoe379rs4" style="transform-origin: 359.545px 107.61px 0px;" class="animable"></path></g></g><path d="M360,73.6l.37,59.55a9.41,9.41,0,0,0-.63-3.41,11.49,11.49,0,0,0-1.6-2.9c-5.46-7.27-20.62-11.62-46.12-13.24l-.38-59.55c25.5,1.62,40.66,6,46.12,13.24a11.53,11.53,0,0,1,1.61,2.9A9.82,9.82,0,0,1,360,73.6Z" style="fill: rgb(0, 255, 136); transform-origin: 336.005px 93.6px 0px;" id="elika735qkcq" class="animable"></path></g><defs>     <filter id="active" height="200%">         <feMorphology in="SourceAlpha" result="DILATED" operator="dilate" radius="2"></feMorphology>                <feFlood flood-color="#32DFEC" flood-opacity="1" result="PINK"></feFlood>        <feComposite in="PINK" in2="DILATED" operator="in" result="OUTLINE"></feComposite>        <feMerge>            <feMergeNode in="OUTLINE"></feMergeNode>            <feMergeNode in="SourceGraphic"></feMergeNode>        </feMerge>    </filter>    <filter id="hover" height="200%">        <feMorphology in="SourceAlpha" result="DILATED" operator="dilate" radius="2"></feMorphology>                <feFlood flood-color="#ff0000" flood-opacity="0.5" result="PINK"></feFlood>        <feComposite in="PINK" in2="DILATED" operator="in" result="OUTLINE"></feComposite>        <feMerge>            <feMergeNode in="OUTLINE"></feMergeNode>            <feMergeNode in="SourceGraphic"></feMergeNode>        </feMerge>            <feColorMatrix type="matrix" values="0   0   0   0   0                0   1   0   0   0                0   0   0   0   0                0   0   0   1   0 "></feColorMatrix>    </filter></defs></svg>